<?xml version="1.0" ?><!DOCTYPE svg  PUBLIC '-//W3C//DTD SVG 1.1//EN'  'http://www.w3.org/Graphics/SVG/1.1/DTD/svg11.dtd'><svg enable-background="new 0 0 75 75" height="75px" id="Layer_1" version="1.1" viewBox="0 0 75 75" width="75px" xml:space="preserve" xmlns="http://www.w3.org/2000/svg" xmlns:xlink="http://www.w3.org/1999/xlink"><g><g><path d="M63.63,40.693c-0.234,0-0.464-0.108-0.609-0.312c-1.015-1.408-2.65-2.25-4.377-2.252l-1.025-0.001    c-0.261,0-0.503-0.136-0.639-0.358c-0.861-1.408-1.315-3-1.313-4.604c0.002-3.753,2.396-7.121,5.959-8.381    c0.162-0.057,0.338-0.057,0.502,0c3.557,1.267,5.945,4.64,5.943,8.392c-0.004,2.973-1.511,5.736-4.029,7.394    C63.914,40.653,63.771,40.693,63.63,40.693z M58.053,36.629l0.593,0.001c1.955,0.002,3.82,0.847,5.12,2.29    c1.765-1.399,2.802-3.501,2.805-5.744c0.002-3.03-1.875-5.763-4.696-6.883c-2.825,1.115-4.706,3.844-4.708,6.874    C57.164,34.38,57.462,35.542,58.053,36.629z" fill="#44A4E0"/></g><g><path d="M64.088,69.539L64.088,69.539l-5.981-0.006c-0.788,0-1.431-0.643-1.431-1.432l0.007-6.976l-12.727-0.011    l-0.007,6.975c0,0.788-0.641,1.43-1.428,1.43l-5.985-0.005c-0.787,0-1.429-0.643-1.429-1.432l0.007-6.976l-1.404-0.001    l-0.007,6.975c0,0.788-0.641,1.43-1.428,1.43l-5.985-0.005c-0.382,0-0.741-0.149-1.011-0.421    c-0.271-0.271-0.418-0.632-0.416-1.016l0.012-13.589c0-0.031,0.005-0.076,0.011-0.122c-0.007-0.057-0.011-0.107-0.011-0.16    l0.004-4.601c0-0.198,0.079-0.39,0.22-0.53c0.141-0.14,0.332-0.219,0.53-0.219h0.001l9.504,0.009c4.498,0,8.155-3.654,8.159-8.146    l0.004-3.346c0-0.414,0.336-0.749,0.75-0.749h0.001l14.598,0.013c1.843,0.002,3.575,0.721,4.877,2.024    c1.303,1.304,2.019,3.037,2.017,4.88l-0.01,10.699c0,0.053-0.004,0.104-0.01,0.155c0.006,0.044,0.01,0.089,0.01,0.127    l-0.012,13.593C65.518,68.896,64.876,69.539,64.088,69.539z M43.207,59.614L43.207,59.614l14.228,0.013    c0.198,0,0.39,0.079,0.53,0.22c0.14,0.142,0.219,0.332,0.219,0.531l-0.008,7.725l5.842-0.062l0.012-13.452    c-0.003-0.012-0.006-0.022-0.007-0.029c-0.011-0.061-0.015-0.122-0.012-0.184c0.003-0.05,0.01-0.097,0.017-0.145l0.012-10.698    c0.002-1.441-0.559-2.798-1.578-3.818c-1.019-1.021-2.374-1.583-3.817-1.584l-13.848-0.012l-0.003,2.596    c-0.004,5.316-4.335,9.643-9.653,9.644l-8.762-0.008l-0.003,3.85c0.003,0.021,0.017,0.12,0.019,0.142    c0.003,0.062-0.001,0.123-0.012,0.184l-0.007,0.027l-0.012,13.522l5.911-0.063l-0.063-7.656c0-0.414,0.336-0.749,0.75-0.749h0.001    l2.904,0.003c0.198,0,0.39,0.079,0.53,0.22c0.14,0.142,0.219,0.332,0.219,0.531l-0.008,7.725l5.913-0.064l-0.063-7.656    C42.457,59.949,42.793,59.614,43.207,59.614z" fill="#44A4E0"/></g><g><path d="M33.797,61.106C33.797,61.106,33.797,61.106,33.797,61.106l-2.905-0.003c-0.414,0-0.749-0.337-0.749-0.751    s0.336-0.749,0.75-0.749h0.001l2.904,0.003c0.414,0,0.749,0.337,0.749,0.751S34.211,61.106,33.797,61.106z" fill="#44A4E0"/></g><g><path d="M53.842,69.53L53.842,69.53l-5.981-0.006c-0.787,0-1.429-0.643-1.429-1.432l0.008-7.726    c0-0.414,0.336-0.749,0.75-0.749h0.001l7.342,0.006c0.198,0,0.39,0.079,0.53,0.22c0.14,0.142,0.219,0.332,0.219,0.531L55.273,68.1    C55.273,68.888,54.631,69.53,53.842,69.53z M47.938,61.119l-0.007,6.975l5.842-0.062l0.007-6.908L47.938,61.119z" fill="#44A4E0"/></g><g><g><g><path d="M17.305,29.668C17.305,29.668,17.305,29.668,17.305,29.668l-2.147-0.002      c-0.414,0-0.749-0.337-0.749-0.751s0.336-0.749,0.75-0.749c0,0,0,0,0.001,0l2.146,0.002c0.414,0,0.749,0.337,0.749,0.751      S17.719,29.668,17.305,29.668z" fill="#44A4E0"/></g><g><path d="M44.463,29.691C44.463,29.691,44.463,29.691,44.463,29.691l-2.149-0.002      c-0.414,0-0.749-0.337-0.749-0.751s0.336-0.749,0.75-0.749c0,0,0,0,0.001,0l2.148,0.002c0.414,0,0.749,0.337,0.749,0.751      S44.877,29.691,44.463,29.691z" fill="#44A4E0"/></g></g><g><g><path d="M18.479,19.229c-0.04,0-0.079-0.003-0.119-0.01l-2.342-0.374c-0.678-0.109-1.279-0.532-1.611-1.131      l-2.059-3.701c-0.293-0.523-0.363-1.132-0.199-1.711c0.165-0.579,0.546-1.06,1.071-1.353c0.652-0.364,1.479-0.367,2.121-0.039      l-1.017-2.274c-0.506-1.137,0.006-2.472,1.141-2.978c1.106-0.497,2.484,0.037,2.977,1.138L19.07,8.2      c0.044-0.113,0.098-0.223,0.16-0.329c0.308-0.519,0.798-0.887,1.382-1.034c1.187-0.307,2.441,0.445,2.741,1.626l0.615,2.393      c0.177,0.706,0.008,1.451-0.45,1.999l-1.537,1.861l0.549,1.23c0.084,0.188,0.087,0.402,0.008,0.593      c-0.078,0.19-0.232,0.34-0.425,0.413c-0.025,0.01-0.096,0.032-0.121,0.039L19.762,18c-0.373,0.167-0.511,0.494-0.56,0.675      C19.112,19.006,18.812,19.229,18.479,19.229z M14.316,12.163c-0.128,0-0.251,0.032-0.364,0.096      c-0.177,0.099-0.305,0.26-0.359,0.453s-0.031,0.396,0.066,0.571l2.059,3.702c0.111,0.2,0.313,0.342,0.539,0.379l1.764,0.281      c0.262-0.445,0.651-0.801,1.126-1.014l1.705-0.769l-0.429-0.961c-0.116-0.261-0.075-0.563,0.106-0.783l1.836-2.223      c0.154-0.185,0.209-0.435,0.149-0.673L21.9,8.834c-0.102-0.397-0.525-0.646-0.919-0.544c-0.194,0.05-0.357,0.172-0.46,0.345      c-0.103,0.174-0.132,0.378-0.082,0.575l0.426,1.652c0.06,0.232,0.005,0.479-0.148,0.664l-0.4,0.484      c-0.165,0.2-0.415,0.305-0.68,0.266c-0.257-0.035-0.478-0.2-0.583-0.438l-1.98-4.432c-0.164-0.367-0.622-0.548-0.995-0.38      c-0.381,0.17-0.553,0.617-0.383,0.998l3.151,7.051c0.112,0.251,0.078,0.544-0.09,0.762c-0.167,0.219-0.44,0.331-0.713,0.284      l-0.826-0.132c-0.228-0.036-0.426-0.175-0.537-0.376l-1.703-3.062C14.844,12.312,14.59,12.163,14.316,12.163z" fill="#44A4E0"/></g><g><path d="M39.178,21.281L39.178,21.281l-3.282-0.003c-0.239,0-0.464-0.114-0.604-0.308      c-0.142-0.193-0.182-0.442-0.109-0.67c0.021-0.076,0.039-0.133,0.064-0.191l2.416-5.38l-1.536-1.867      c-0.457-0.547-0.623-1.295-0.442-1.996l0.619-2.394c0.3-1.179,1.555-1.924,2.743-1.62c0.583,0.149,1.073,0.518,1.379,1.036      c0.063,0.106,0.117,0.217,0.161,0.33l0.631-1.403c0.494-1.1,1.874-1.626,2.979-1.133c1.132,0.507,1.642,1.843,1.137,2.978      l-1.022,2.275c0.643-0.326,1.471-0.323,2.122,0.043c0.523,0.293,0.902,0.773,1.066,1.353c0.163,0.58,0.091,1.188-0.203,1.714      l-2.062,3.695c-0.339,0.609-0.928,1.021-1.617,1.129l-3.089,0.488l-0.665,1.481C39.741,21.108,39.473,21.281,39.178,21.281z       M37.039,19.779l1.653,0.002l0.633-1.409c0.104-0.23,0.317-0.394,0.567-0.434l3.49-0.552c0.228-0.035,0.429-0.176,0.54-0.376      l2.062-3.698c0.1-0.177,0.123-0.38,0.068-0.573s-0.181-0.354-0.355-0.452c-0.361-0.202-0.831-0.062-1.028,0.292l-1.706,3.058      c-0.112,0.201-0.311,0.34-0.538,0.376l-0.828,0.131c-0.271,0.043-0.546-0.067-0.713-0.286s-0.201-0.512-0.089-0.763l3.166-7.047      c0.169-0.379-0.001-0.826-0.38-0.996c-0.374-0.17-0.832,0.012-0.998,0.379l-1.99,4.428c-0.106,0.236-0.327,0.401-0.585,0.436      c-0.261,0.04-0.515-0.067-0.679-0.269l-0.396-0.484c-0.151-0.185-0.206-0.431-0.146-0.661l0.426-1.654      c0.052-0.197,0.022-0.401-0.08-0.574c-0.102-0.173-0.265-0.296-0.46-0.346c-0.398-0.098-0.816,0.146-0.917,0.54l-0.619,2.396      c-0.061,0.234-0.007,0.482,0.144,0.664l1.836,2.23c0.181,0.22,0.222,0.523,0.105,0.784L37.039,19.779z" fill="#44A4E0"/></g></g><g><g><path d="M24.988,35.81L24.988,35.81c-0.416-0.001-0.751-0.337-0.75-0.751c0.001-0.313-0.12-0.607-0.341-0.828      s-0.515-0.343-0.828-0.343c0,0,0,0-0.001,0c-0.312,0-0.607,0.121-0.828,0.342c-0.222,0.221-0.344,0.514-0.344,0.826      c0,0.414-0.336,0.75-0.75,0.75s-0.75-0.336-0.75-0.75c0-0.715,0.279-1.386,0.785-1.89c0.504-0.502,1.175-0.778,1.887-0.778      c0.001,0,0.002,0,0.003,0c0.713,0.001,1.384,0.278,1.887,0.783c0.505,0.505,0.781,1.176,0.78,1.89      C25.737,35.475,25.402,35.81,24.988,35.81z" fill="#44A4E0"/></g><g><path d="M38.461,35.821L38.461,35.821c-0.416-0.001-0.751-0.337-0.75-0.751c0.001-0.313-0.12-0.607-0.341-0.828      s-0.515-0.343-0.828-0.343h-0.001c-0.312,0-0.606,0.121-0.827,0.342c-0.221,0.22-0.343,0.514-0.343,0.826      c0,0.414-0.336,0.75-0.75,0.75s-0.75-0.336-0.75-0.75c0-0.714,0.278-1.385,0.784-1.889c0.504-0.503,1.174-0.779,1.886-0.779      h0.003c0.713,0.001,1.384,0.278,1.887,0.783c0.505,0.505,0.781,1.176,0.78,1.89C39.21,35.486,38.875,35.821,38.461,35.821z" fill="#44A4E0"/></g></g><g><g><path d="M27.328,44.128h-0.003c-1.775-0.001-3.22-1.448-3.22-3.225c0-0.414,0.336-0.75,0.75-0.75      s0.75,0.336,0.75,0.75c0,0.95,0.772,1.724,1.722,1.725h0.001c0.459,0,0.892-0.179,1.216-0.504      c0.326-0.325,0.505-0.757,0.505-1.217l0.002-1.706c0-0.414,0.336-0.749,0.75-0.749h0.001c0.414,0,0.749,0.337,0.749,0.751      l-0.002,1.705c0,0.859-0.335,1.669-0.944,2.277C28.996,43.793,28.188,44.128,27.328,44.128z" fill="#44A4E0"/></g><g><path d="M32.273,44.132c-0.002,0-0.003,0-0.005,0c-1.775-0.001-3.22-1.448-3.22-3.225l0.002-1.706      c0-0.414,0.336-0.749,0.75-0.749h0.001c0.414,0,0.749,0.337,0.749,0.751l-0.002,1.705c0,0.949,0.772,1.723,1.722,1.724h0.002      c0.459,0,0.891-0.179,1.215-0.503c0.325-0.324,0.505-0.757,0.505-1.217c0-0.414,0.336-0.75,0.75-0.75s0.75,0.336,0.75,0.75      c0,0.861-0.336,1.67-0.944,2.278C33.939,43.798,33.132,44.132,32.273,44.132z" fill="#44A4E0"/></g></g><g><g><path d="M29.801,39.952c-0.382,0-0.743-0.149-1.019-0.421l-2.081-2.087c-0.413-0.409-0.538-1.027-0.314-1.572      c0.229-0.546,0.755-0.895,1.34-0.895l4.157,0.004c0.591,0,1.116,0.354,1.337,0.899c0.223,0.543,0.098,1.161-0.319,1.572      l-2.078,2.075C30.552,39.799,30.18,39.952,29.801,39.952z M27.726,36.478l2.074,1.953l1.952-1.949L27.726,36.478z" fill="#44A4E0"/></g></g><g><path d="M16.857,29.021c-0.028,0-0.057-0.002-0.086-0.005c-0.263-0.03-0.489-0.196-0.598-0.438l-4.57-10.161     c-0.108-0.241-0.082-0.521,0.069-0.738s0.408-0.33,0.67-0.317l5.597,0.416c0.258-0.506,0.677-0.909,1.207-1.146l2.291-1.032     c0.521-0.235,1.108-0.28,1.656-0.14l3.401-4.463c0.159-0.209,0.41-0.319,0.683-0.29c0.263,0.03,0.489,0.196,0.598,0.438     l4.57,10.164c0.108,0.241,0.082,0.521-0.069,0.738c-0.152,0.217-0.408,0.331-0.67,0.317l-5.595-0.419     c-0.258,0.506-0.677,0.908-1.207,1.146l-2.291,1.032c-0.524,0.234-1.11,0.282-1.656,0.14l-3.403,4.464     C17.312,28.913,17.09,29.021,16.857,29.021z M13.488,18.952l3.536,7.863l2.982-3.912c0.229-0.299,0.644-0.382,0.967-0.197     c0.285,0.161,0.629,0.182,0.925,0.049l2.291-1.032c0.298-0.134,0.509-0.397,0.579-0.726c0.079-0.367,0.436-0.613,0.789-0.59     l4.903,0.367l-3.536-7.865l-2.98,3.91c-0.229,0.298-0.642,0.383-0.966,0.197c-0.286-0.161-0.634-0.182-0.925-0.049L19.762,18     c-0.298,0.134-0.509,0.397-0.579,0.727c-0.08,0.367-0.438,0.604-0.789,0.59L13.488,18.952z" fill="#44A4E0"/></g><g><path d="M35.14,50.357C35.14,50.357,35.141,50.357,35.14,50.357c0,0-0.007,0-0.008,0l-10.684-0.01     c-5.321-0.004-9.647-4.338-9.644-9.661l0.01-11.06c-4.48-0.653-7.889-4.528-7.885-9.125c0-0.414,0.336-0.749,0.75-0.749     c0,0,0,0,0.001,0l5.686,0.005c0.295,0,0.562,0.174,0.683,0.442l2.976,6.615l2.982-3.912c0.229-0.299,0.644-0.382,0.967-0.197     c0.285,0.161,0.629,0.182,0.925,0.049l2.291-1.032c0.298-0.134,0.509-0.397,0.579-0.726c0.079-0.367,0.436-0.613,0.789-0.59     l4.905,0.367c-0.077-0.219-0.05-0.462,0.077-0.658c0.139-0.214,0.376-0.343,0.63-0.343h0.001l20.783,0.019     c0.414,0,0.749,0.337,0.749,0.751c-0.004,4.597-3.419,8.466-7.9,9.11l-0.01,11.061C44.789,46.031,40.458,50.357,35.14,50.357z      M16.323,28.798c0.014,0.062,0.019,0.128,0.016,0.195l-0.012,0.183c-0.006,0.079-0.013,0.157-0.013,0.238l-0.01,11.274     c-0.004,4.495,3.65,8.155,8.146,8.159l10.684,0.01l0.006,0.75v-0.75c4.492,0,8.149-3.654,8.153-8.146l0.01-11.273     c0-0.085-0.006-0.169-0.012-0.252l-0.011-0.168c-0.021-0.41,0.292-0.761,0.701-0.786c3.794-0.243,6.819-3.229,7.185-6.941     l-18.835-0.017l0.015,0.034c0.108,0.241,0.082,0.521-0.069,0.738s-0.408,0.331-0.67,0.317l-5.595-0.419     c-0.258,0.506-0.677,0.908-1.207,1.146l-2.291,1.032c-0.524,0.234-1.109,0.282-1.657,0.14l-3.402,4.464     c-0.16,0.209-0.416,0.315-0.683,0.29C16.6,28.997,16.441,28.918,16.323,28.798z M8.466,21.254     c0.358,3.713,3.38,6.703,7.173,6.953c0.175,0.011,0.332,0.082,0.453,0.19l-3.212-7.14L8.466,21.254z" fill="#44A4E0"/></g></g></g></svg>