<?xml version="1.0" ?><svg id="Layer_1" style="enable-background:new 0 0 100 100;" version="1.1" viewBox="0 0 100 100" xml:space="preserve" xmlns="http://www.w3.org/2000/svg" xmlns:xlink="http://www.w3.org/1999/xlink"><style type="text/css">
	.st0{fill:#394B9F;}
</style><g><g><path class="st0" d="M50,48.4c-0.5,0-0.9-0.2-1.3-0.5c-0.4-0.3-8.7-8.2-8.7-19.9S48.4,8.3,48.7,8c0.7-0.7,1.8-0.7,2.5,0    c0.4,0.3,8.7,8.2,8.7,19.9s-8.3,19.6-8.7,19.9C50.9,48.2,50.5,48.4,50,48.4z M50,12.1c-2.1,2.5-6.2,8.3-6.2,15.9    c0,7.6,4.1,13.4,6.2,15.9c2.1-2.5,6.2-8.3,6.2-15.9C56.2,20.4,52.1,14.6,50,12.1z"/></g><g><path class="st0" d="M50,48.4c-7.8,0-13.5-2.2-16.9-6.6c-4.8-6.2-3.5-14.4-2.7-17.6c1.7-6.9-2.7-13.7-2.7-13.8    c-0.4-0.6-0.4-1.3-0.1-1.9c0.3-0.6,0.9-1,1.6-1c14.5,0,16.3,10.9,16.4,11c0.1,0.3,0,0.7-0.1,1c-1.1,2.8-1.7,5.6-1.7,8.4    c0,10.2,7.4,17.2,7.5,17.2c0.6,0.5,0.7,1.3,0.5,2C51.4,47.9,50.8,48.4,50,48.4z M32.4,11.4c1.4,3.1,2.9,8.2,1.6,13.6    c-0.5,2.1-2,9.4,2,14.5c2.1,2.7,5.3,4.3,9.8,4.9c-2.5-3.4-5.7-9.2-5.7-16.5c0-3.1,0.6-6.2,1.7-9.3C41.4,17.2,39.5,12.5,32.4,11.4z    "/></g><g><path class="st0" d="M50,48.4c-0.8,0-1.4-0.5-1.7-1.2c-0.3-0.7-0.1-1.5,0.5-2c0.1-0.1,7.5-7.1,7.5-17.2c0-2.8-0.6-5.6-1.7-8.4    c-0.1-0.2-0.1-0.5-0.1-0.7c0-1.8,3-11.3,16.4-11.3c0.7,0,1.3,0.4,1.6,1c0.3,0.6,0.3,1.3-0.1,1.9c0,0.1-4.5,6.8-2.7,13.8    c0.8,3.2,2.2,11.4-2.7,17.6C63.5,46.2,57.8,48.4,50,48.4z M58.2,18.7c1.2,3,1.7,6.2,1.7,9.3c0,7.3-3.2,13-5.7,16.5    c4.4-0.6,7.7-2.3,9.8-4.9c3.9-5,2.5-12.3,2-14.5c-1.3-5.4,0.2-10.5,1.6-13.6C60.5,12.5,58.6,17.2,58.2,18.7z"/></g><g><rect class="st0" height="44.1" width="3.7" x="48.2" y="46.5"/></g><g><path class="st0" d="M42.8,65.7c-7.3,0-12.8-3-16.4-5.8c-5.1-4.1-7.6-8.9-7.7-9.1c-0.3-0.6-0.3-1.3,0.1-1.8    c0.3-0.5,0.9-0.9,1.6-0.9c22.5,0,30.8,13.3,31.1,13.8c0.3,0.5,0.4,1.1,0.1,1.7c-0.2,0.5-0.7,0.9-1.2,1.1    C47.7,65.4,45.2,65.7,42.8,65.7z M23.9,52c3.2,4.3,10.5,11.7,22.8,9.8C43.8,58.5,36.8,52.8,23.9,52z"/></g><g><path class="st0" d="M57.2,65.7c-2.4,0-4.9-0.3-7.7-1c-0.6-0.1-1-0.6-1.2-1.1c-0.2-0.5-0.2-1.2,0.1-1.7    c0.3-0.6,8.7-13.8,31.1-13.8c0.6,0,1.2,0.3,1.6,0.9c0.3,0.5,0.4,1.2,0.1,1.8c-0.1,0.2-2.5,5-7.7,9.1C70,62.8,64.5,65.7,57.2,65.7z     M53.3,61.7C65.6,63.7,73,56.2,76.1,52C63.2,52.8,56.2,58.5,53.3,61.7z"/></g><g><rect class="st0" height="3.7" width="81.3" x="9.3" y="88.8"/></g></g></svg>