<?xml version="1.0" ?><svg id="Layer_1" style="enable-background:new 0 0 30 30;" version="1.1" viewBox="0 0 30 30" xml:space="preserve" xmlns="http://www.w3.org/2000/svg" xmlns:xlink="http://www.w3.org/1999/xlink"><g><path d="M29.761,18.849c-0.09-0.124-2.241-3.036-5.606-3.805c-2.767-0.63-5.422,0.4-6.353,0.825   c0.017-0.123,0.038-0.245,0.038-0.373c0-0.359-0.074-0.699-0.199-1.014c1.079-0.029,3.823-0.278,5.993-2.009   c2.699-2.151,3.374-5.71,3.401-5.86c0.021-0.114-0.009-0.231-0.081-0.321s-0.18-0.145-0.295-0.15   c-0.153-0.01-3.772-0.142-6.47,2.011c-2.102,1.676-2.974,4.198-3.271,5.306c-0.332-0.298-0.734-0.518-1.182-0.626   c0.678-0.916,2.118-3.177,2.118-5.875c0-3.451-2.362-6.197-2.462-6.313c-0.151-0.174-0.451-0.174-0.603,0   c-0.101,0.115-2.462,2.861-2.462,6.313c0,2.698,1.439,4.958,2.117,5.875c-0.457,0.111-0.866,0.336-1.202,0.643   c-0.262-1.03-1.12-3.695-3.305-5.437c-2.699-2.152-6.318-2.02-6.47-2.011c-0.116,0.005-0.223,0.06-0.295,0.15   C3.1,6.268,3.07,6.385,3.091,6.499c0.027,0.15,0.702,3.708,3.4,5.86c2.245,1.791,5.104,1.996,6.098,2.012   c-0.156,0.345-0.248,0.724-0.248,1.127c0,0.107,0.02,0.208,0.031,0.311c-0.723-0.352-3.561-1.586-6.527-0.907   c-3.365,0.768-5.517,3.68-5.606,3.804c-0.068,0.094-0.092,0.212-0.067,0.324c0.026,0.112,0.099,0.209,0.201,0.264   c0.11,0.059,2.261,1.195,4.877,1.195c0.591,0,1.205-0.059,1.825-0.2c3.017-0.688,5.054-3.095,5.508-3.675   c0.213,0.476,0.554,0.882,0.983,1.169c-0.43,0.193-3.485,1.647-4.906,4.596c-1.498,3.11-0.562,6.608-0.521,6.756   c0.031,0.111,0.108,0.204,0.212,0.254c0.055,0.026,0.114,0.04,0.173,0.04c0.054,0,0.107-0.011,0.158-0.032   c0.14-0.061,3.459-1.511,4.957-4.619c1.418-2.944,0.655-6.233,0.536-6.7c0.288,0.102,0.593,0.169,0.915,0.169   c0.217,0,0.426-0.032,0.629-0.08c-0.139,0.554-0.852,3.781,0.542,6.674c1.498,3.109,4.816,4.56,4.957,4.62   c0.05,0.021,0.104,0.032,0.157,0.032c0.06,0,0.119-0.014,0.174-0.04c0.104-0.05,0.182-0.143,0.212-0.254   c0.04-0.147,0.977-3.646-0.521-6.757c-1.263-2.622-3.815-4.059-4.669-4.483c-0.02-0.042-0.044-0.081-0.076-0.112   c0.411-0.247,0.747-0.596,0.983-1.014c0.557,0.693,2.551,2.939,5.447,3.6c0.62,0.142,1.234,0.2,1.825,0.2   c2.616,0,4.767-1.137,4.877-1.195c0.102-0.055,0.175-0.151,0.2-0.264C29.854,19.061,29.829,18.942,29.761,18.849z M6.897,19.509   c-2.378,0.542-4.743-0.299-5.701-0.713c0.684-0.789,2.451-2.572,4.827-3.115c1.938-0.442,3.852,0.033,5.019,0.449l-2.693,0.745   c-0.213,0.06-0.338,0.279-0.279,0.492c0.049,0.178,0.21,0.294,0.386,0.294c0.035,0,0.071-0.005,0.106-0.015l2.686-0.743   C10.381,17.785,8.851,19.062,6.897,19.509z M12.918,24.429c-1.058,2.196-3.191,3.521-4.112,4.013   c-0.191-1.024-0.486-3.514,0.575-5.716c0.853-1.77,2.394-2.964,3.446-3.622l-1.179,2.475c-0.095,0.199-0.01,0.438,0.189,0.533   c0.055,0.026,0.114,0.039,0.171,0.039c0.15,0,0.293-0.085,0.362-0.229l1.22-2.561C13.743,20.583,13.8,22.599,12.918,24.429z    M20.687,8.778c1.905-1.52,4.402-1.788,5.445-1.832c-0.274,1.008-1.092,3.382-2.997,4.901c-1.637,1.305-3.703,1.686-4.917,1.795   l2.187-1.9c0.166-0.145,0.185-0.397,0.039-0.564c-0.146-0.168-0.397-0.186-0.564-0.04l-1.906,1.656   C18.399,11.626,19.217,9.951,20.687,8.778z M15.09,1.559c0.617,0.842,1.963,2.961,1.963,5.399c0,1.987-0.89,3.749-1.555,4.794   l0.043-3.09c0.003-0.221-0.173-0.402-0.395-0.405c-0.002,0-0.003,0-0.005,0c-0.218,0-0.397,0.175-0.4,0.395l-0.043,3.126   c-0.666-1.041-1.571-2.816-1.571-4.819C13.126,4.521,14.473,2.401,15.09,1.559z M3.993,6.832C5.034,6.874,7.527,7.14,9.438,8.664v0   c1.568,1.25,2.392,3.068,2.79,4.238L9.811,11.12c-0.178-0.132-0.428-0.093-0.559,0.084c-0.131,0.178-0.093,0.428,0.084,0.559   l2.366,1.744c-1.23-0.131-3.157-0.534-4.712-1.774C5.083,10.213,4.267,7.838,3.993,6.832z M20.52,22.789   c1.058,2.197,0.764,4.691,0.573,5.718c-0.92-0.49-3.051-1.812-4.111-4.015c-0.84-1.745-0.825-3.666-0.689-4.901l0.737,2.155   c0.058,0.166,0.213,0.271,0.379,0.271c0.043,0,0.087-0.007,0.13-0.021c0.209-0.072,0.32-0.3,0.249-0.509l-0.815-2.383   C18.023,19.746,19.639,20.961,20.52,22.789z M15.09,17.444c-1.075,0-1.949-0.874-1.949-1.948c0-1.075,0.874-1.949,1.949-1.949   c1.074,0,1.948,0.874,1.948,1.949C17.038,16.57,16.164,17.444,15.09,17.444z M23.103,19.652c-1.962-0.448-3.498-1.737-4.363-2.619   l2.627,0.988c0.046,0.018,0.094,0.026,0.141,0.026c0.162,0,0.314-0.1,0.374-0.26c0.078-0.207-0.026-0.438-0.233-0.515l-2.675-1.006   c1.168-0.414,3.074-0.884,5.003-0.443c2.377,0.543,4.144,2.327,4.827,3.115C27.848,19.354,25.488,20.195,23.103,19.652z"/><circle cx="15.141" cy="13.859" r="0.229"/><circle cx="14.751" cy="14.7" r="0.229"/><circle cx="16.582" cy="15.332" r="0.229"/><circle cx="13.629" cy="16.046" r="0.229"/><circle cx="15.371" cy="15.87" r="0.229"/><circle cx="15.882" cy="16.681" r="0.229"/><circle cx="15.319" cy="14.7" r="0.229"/><circle cx="15.319" cy="15.246" r="0.229"/><circle cx="15.882" cy="15.332" r="0.229"/><ellipse cx="15.741" cy="14.141" rx="0.229" ry="0.229" transform="matrix(0.1207 -0.9927 0.9927 0.1207 -0.1959 28.061)"/><ellipse cx="14.459" cy="13.973" rx="0.229" ry="0.229" transform="matrix(0.1207 -0.9927 0.9927 0.1207 -1.1569 26.6403)"/><circle cx="16.276" cy="15.94" r="0.229"/><circle cx="16.276" cy="14.7" r="0.229"/><circle cx="14.476" cy="15.246" r="0.229"/><circle cx="14.706" cy="15.817" r="0.229"/><circle cx="14.229" cy="16.223" r="0.229"/><circle cx="14.182" cy="14.47" r="0.229"/><circle cx="13.724" cy="14.7" r="0.229"/><circle cx="15.229" cy="16.634" r="0.229"/><circle cx="14.459" cy="16.998" r="0.229"/><circle cx="13.724" cy="15.332" r="0.229"/></g></svg>