<?xml version="1.0" ?><svg id="frog" style="enable-background:new 0 0 300 300;" version="1.1" viewBox="0 0 300 300" xml:space="preserve" xmlns="http://www.w3.org/2000/svg" xmlns:xlink="http://www.w3.org/1999/xlink"><g><path d="   M156,272H80.958c-6.547,0-7.003-2.256-1.101-5.001l24.973-11.613c-7.111-6.45-15.603-18.091-23.041-32.334   C69.117,198.783,64.308,176.15,71.05,172.5c3.252-1.761,8.598,1.218,14.684,7.498" style="fill-rule:evenodd;clip-rule:evenodd;fill:none;stroke:#000000;stroke-width:8;stroke-linecap:round;stroke-linejoin:round;stroke-miterlimit:10;"/><path d="   M152,272h75.042c6.547,0,7.003-2.256,1.101-5.001l-24.973-11.613c7.111-6.45,15.604-18.091,23.041-32.334   c12.673-24.269,17.481-46.902,10.74-50.552c-3.896-2.109-10.797,2.583-18.374,11.604" style="fill-rule:evenodd;clip-rule:evenodd;fill:none;stroke:#000000;stroke-width:8;stroke-linecap:round;stroke-linejoin:round;stroke-miterlimit:10;"/><path d="   M92.61,170.642c-5.484,9.746-8.61,20.98-8.61,32.94C84,240.907,114.445,272,152,272s68-31.093,68-68.418   c0-12.056-3.176-23.374-8.742-33.174" style="fill-rule:evenodd;clip-rule:evenodd;fill:none;stroke:#000000;stroke-width:8;stroke-linecap:round;stroke-linejoin:round;stroke-miterlimit:10;"/><path d="   M228,64c0-15.464-12.536-28-28-28c-9.619,0-18.101,4.854-23.142,12.243C169.059,45.541,160.719,44,152,44   s-17.059,1.541-24.858,4.243C122.101,40.854,113.619,36,104,36c-15.464,0-28,12.536-28,28c0,8.056,3.422,15.297,8.869,20.406   C79.225,95.028,76,107.133,76,120c0,41.974,34.026,76,76,76s76-34.026,76-76c0-12.867-3.224-24.972-8.868-35.594   C224.578,79.297,228,72.056,228,64z" style="fill-rule:evenodd;clip-rule:evenodd;fill:none;stroke:#000000;stroke-width:8;stroke-linecap:round;stroke-linejoin:round;stroke-miterlimit:10;"/><ellipse cx="104" cy="68" rx="16" ry="20" style="fill-rule:evenodd;clip-rule:evenodd;fill:none;stroke:#000000;stroke-width:8;stroke-linecap:round;stroke-linejoin:round;stroke-miterlimit:10;"/><circle cx="104" cy="60" r="4" style="fill-rule:evenodd;clip-rule:evenodd;fill:none;stroke:#000000;stroke-width:8;stroke-linecap:round;stroke-linejoin:round;stroke-miterlimit:10;"/><ellipse cx="200" cy="68" rx="16" ry="20" style="fill-rule:evenodd;clip-rule:evenodd;fill:none;stroke:#000000;stroke-width:8;stroke-linecap:round;stroke-linejoin:round;stroke-miterlimit:10;"/><circle cx="200" cy="60" r="4" style="fill-rule:evenodd;clip-rule:evenodd;fill:none;stroke:#000000;stroke-width:8;stroke-linecap:round;stroke-linejoin:round;stroke-miterlimit:10;"/><path d="   M100,148c0,0,26,8,52,8c26,0,52-8,52-8" style="fill:none;stroke:#000000;stroke-width:8;stroke-linecap:round;stroke-linejoin:round;stroke-miterlimit:10;"/></g><g/><g/><g/><g/><g/><g/><g/><g/><g/><g/><g/><g/><g/><g/><g/></svg>