<?xml version="1.0" ?><svg id="turtle" style="enable-background:new 0 0 300 300;" version="1.1" viewBox="0 0 300 300" xml:space="preserve" xmlns="http://www.w3.org/2000/svg" xmlns:xlink="http://www.w3.org/1999/xlink"><g><path d="   M174.867,94.005C179.303,87.635,182,79.223,182,70c0-19.882-12.536-36-28-36s-28,16.118-28,36c0,9.223,2.697,17.635,7.133,24.005" style="fill-rule:evenodd;clip-rule:evenodd;fill:none;stroke:#000000;stroke-width:8;stroke-linecap:round;stroke-linejoin:round;stroke-miterlimit:10;"/><path d="   M106.218,214.262c-2.812,10.158-9.119,38.166,2.685,50.652C123.466,280.316,134,278.473,134,241.061c0-1.904-0.069-3.694-0.2-5.376   " style="fill-rule:evenodd;clip-rule:evenodd;fill:none;stroke:#000000;stroke-width:8;stroke-linecap:round;stroke-linejoin:round;stroke-miterlimit:10;"/><path d="   M201.971,214.952c2.89,10.683,8.673,37.748-2.874,49.961C184.534,280.316,174,278.473,174,241.061c0-1.717,0.056-3.341,0.163-4.877   " style="fill-rule:evenodd;clip-rule:evenodd;fill:none;stroke:#000000;stroke-width:8;stroke-linecap:round;stroke-linejoin:round;stroke-miterlimit:10;"/><path d="   M103.288,105.991c-9.123-6.865-25.552-17.662-36.498-15.772C50.936,92.955,50,115.409,50,122.716   c0,7.308,7.34,54.464,15.538,51.113c8.198-3.35,16.224-34.917,16.224-34.917s2.646,3.134,7.244,5.948" style="fill-rule:evenodd;clip-rule:evenodd;fill:none;stroke:#000000;stroke-width:8;stroke-linecap:round;stroke-linejoin:round;stroke-miterlimit:10;"/><path d="   M204.702,105.998c9.121-6.865,25.557-17.67,36.508-15.78c15.854,2.736,16.79,25.19,16.79,32.498   c0,7.308-7.341,54.464-15.538,51.113c-8.202-3.35-16.224-34.917-16.224-34.917s-2.33,2.759-6.416,5.424" style="fill-rule:evenodd;clip-rule:evenodd;fill:none;stroke:#000000;stroke-width:8;stroke-linecap:round;stroke-linejoin:round;stroke-miterlimit:10;"/><path d="   M154,238c35.348,0,64-34.026,64-76s-5.276-68-64-68s-64,26.026-64,68S118.652,238,154,238z" style="fill-rule:evenodd;clip-rule:evenodd;fill:none;stroke:#000000;stroke-width:8;stroke-linecap:round;stroke-linejoin:round;stroke-miterlimit:10;"/><polygon points="   154,114 182,130 182,162 154,178 126,162 126,130  " style="fill-rule:evenodd;clip-rule:evenodd;fill:none;stroke:#000000;stroke-width:8;stroke-linecap:round;stroke-linejoin:round;stroke-miterlimit:10;"/><polygon points="   154,114 182,130 182,162 154,178 126,162 126,130  " style="fill:none;stroke:#000000;stroke-width:8;stroke-linecap:round;stroke-linejoin:round;stroke-miterlimit:10;"/><path d="   M146,58c-4.418,0-8,3.582-8,8" style="fill:none;stroke:#000000;stroke-width:8;stroke-linecap:round;stroke-linejoin:round;stroke-miterlimit:10;"/><path d="   M162,58c4.418,0,8,3.582,8,8" style="fill:none;stroke:#000000;stroke-width:8;stroke-linecap:round;stroke-linejoin:round;stroke-miterlimit:10;"/><line style="fill:none;stroke:#000000;stroke-width:8;stroke-linecap:round;stroke-linejoin:round;stroke-miterlimit:10;" x1="154" x2="154" y1="178" y2="234"/><line style="fill:none;stroke:#000000;stroke-width:8;stroke-linecap:round;stroke-linejoin:round;stroke-miterlimit:10;" x1="154" x2="154" y1="114" y2="94"/><line style="fill:none;stroke:#000000;stroke-width:8;stroke-linecap:round;stroke-linejoin:round;stroke-miterlimit:10;" x1="126" x2="98" y1="130" y2="118"/><line style="fill:none;stroke:#000000;stroke-width:8;stroke-linecap:round;stroke-linejoin:round;stroke-miterlimit:10;" x1="126" x2="94" y1="162" y2="182"/><line style="fill:none;stroke:#000000;stroke-width:8;stroke-linecap:round;stroke-linejoin:round;stroke-miterlimit:10;" x1="182" x2="210" y1="130" y2="118"/><line style="fill:none;stroke:#000000;stroke-width:8;stroke-linecap:round;stroke-linejoin:round;stroke-miterlimit:10;" x1="182" x2="214" y1="162" y2="182"/></g><g/><g/><g/><g/><g/><g/><g/><g/><g/><g/><g/><g/><g/><g/><g/></svg>