<svg aria-hidden="true" style="position: absolute; width: 0; height: 0; overflow: hidden;" version="1.1" xmlns="http://www.w3.org/2000/svg" xmlns:xlink="http://www.w3.org/1999/xlink">
<defs>
<symbol id="icon-animal_deer_forest_happy_reindeer_icon" viewBox="0 0 32 32">
<path fill="#44a4e0" style="fill: var(--color1, #44a4e0)" d="M27.149 17.362c-0.1 0-0.198-0.046-0.26-0.133-0.433-0.601-1.131-0.96-1.868-0.961l-0.437-0c-0.111 0-0.215-0.058-0.273-0.153-0.367-0.601-0.561-1.28-0.56-1.964 0.001-1.601 1.022-3.038 2.543-3.576 0.069-0.024 0.144-0.024 0.214 0 1.518 0.541 2.537 1.98 2.536 3.581-0.002 1.268-0.645 2.447-1.719 3.155-0.055 0.035-0.116 0.052-0.176 0.052zM24.769 15.628l0.253 0c0.834 0.001 1.63 0.361 2.185 0.977 0.753-0.597 1.196-1.494 1.197-2.451 0.001-1.293-0.8-2.459-2.004-2.937-1.205 0.476-2.008 1.64-2.009 2.933-0.001 0.518 0.126 1.013 0.378 1.477z"></path>
<path fill="#44a4e0" style="fill: var(--color1, #44a4e0)" d="M27.344 29.67v0l-2.552-0.003c-0.336 0-0.611-0.274-0.611-0.611l0.003-2.976-5.43-0.005-0.003 2.976c0 0.336-0.273 0.61-0.609 0.61l-2.554-0.002c-0.336 0-0.61-0.274-0.61-0.611l0.003-2.976-0.599-0-0.003 2.976c0 0.336-0.274 0.61-0.609 0.61l-2.554-0.002c-0.163 0-0.316-0.064-0.431-0.18s-0.178-0.27-0.178-0.433l0.005-5.798c0-0.013 0.002-0.032 0.005-0.052-0.003-0.024-0.005-0.046-0.005-0.068l0.002-1.963c0-0.084 0.034-0.166 0.094-0.226s0.142-0.093 0.226-0.093l4.055 0.004c1.919 0 3.479-1.559 3.481-3.476l0.002-1.428c0-0.177 0.143-0.32 0.32-0.32l6.229 0.006c0.786 0.001 1.525 0.308 2.081 0.864s0.861 1.296 0.861 2.082l-0.004 4.565c0 0.023-0.002 0.044-0.004 0.066 0.003 0.019 0.004 0.038 0.004 0.054l-0.005 5.8c0 0.337-0.274 0.611-0.61 0.611zM18.435 25.435v0l6.071 0.006c0.084 0 0.166 0.034 0.226 0.094s0.093 0.142 0.093 0.227l-0.003 3.296 2.493-0.026 0.005-5.74c-0.001-0.005-0.003-0.009-0.003-0.012-0.005-0.026-0.006-0.052-0.005-0.078 0.001-0.021 0.004-0.041 0.007-0.062l0.005-4.564c0.001-0.615-0.238-1.194-0.673-1.629s-1.013-0.675-1.629-0.676l-5.908-0.005-0.001 1.108c-0.002 2.268-1.85 4.114-4.119 4.115l-3.738-0.003-0.001 1.643c0.001 0.009 0.007 0.051 0.008 0.061 0.001 0.026-0 0.052-0.005 0.078l-0.003 0.012-0.005 5.769 2.522-0.027-0.027-3.267c0-0.177 0.143-0.32 0.32-0.32h0l1.239 0.001c0.084 0 0.166 0.034 0.226 0.094s0.093 0.142 0.093 0.227l-0.003 3.296 2.523-0.027-0.027-3.267c-0-0.178 0.143-0.321 0.32-0.321z"></path>
<path fill="#44a4e0" style="fill: var(--color1, #44a4e0)" d="M14.42 26.072c0 0 0 0 0 0l-1.239-0.001c-0.177 0-0.32-0.144-0.32-0.32s0.143-0.32 0.32-0.32h0l1.239 0.001c0.177 0 0.32 0.144 0.32 0.32s-0.143 0.32-0.32 0.32z"></path>
<path fill="#44a4e0" style="fill: var(--color1, #44a4e0)" d="M22.973 29.666v0l-2.552-0.003c-0.336 0-0.61-0.274-0.61-0.611l0.003-3.296c0-0.177 0.143-0.32 0.32-0.32l3.133 0.003c0.084 0 0.166 0.034 0.226 0.094s0.093 0.142 0.093 0.227l-0.004 3.296c0 0.336-0.274 0.61-0.611 0.61zM20.454 26.077l-0.003 2.976 2.493-0.026 0.003-2.947-2.493-0.002z"></path>
<path fill="#44a4e0" style="fill: var(--color1, #44a4e0)" d="M7.383 12.658c0 0 0 0 0 0l-0.916-0.001c-0.177 0-0.32-0.144-0.32-0.32s0.143-0.32 0.32-0.32c0 0 0 0 0 0l0.916 0.001c0.177 0 0.32 0.144 0.32 0.32s-0.143 0.32-0.32 0.32z"></path>
<path fill="#44a4e0" style="fill: var(--color1, #44a4e0)" d="M18.971 12.668c0 0 0 0 0 0l-0.917-0.001c-0.177 0-0.32-0.144-0.32-0.32s0.143-0.32 0.32-0.32c0 0 0 0 0 0l0.916 0.001c0.177 0 0.32 0.144 0.32 0.32s-0.143 0.32-0.32 0.32z"></path>
<path fill="#44a4e0" style="fill: var(--color1, #44a4e0)" d="M7.884 8.204c-0.017 0-0.034-0.001-0.051-0.004l-0.999-0.16c-0.289-0.046-0.546-0.227-0.687-0.483l-0.878-1.579c-0.125-0.223-0.155-0.483-0.085-0.73s0.233-0.452 0.457-0.577c0.278-0.155 0.631-0.157 0.905-0.017l-0.434-0.97c-0.216-0.485 0.003-1.055 0.487-1.271 0.472-0.212 1.060 0.016 1.27 0.486l0.268 0.599c0.019-0.048 0.042-0.095 0.068-0.14 0.131-0.221 0.34-0.378 0.59-0.441 0.506-0.131 1.041 0.19 1.169 0.694l0.262 1.021c0.076 0.301 0.003 0.619-0.192 0.853l-0.656 0.794 0.234 0.525c0.036 0.080 0.037 0.172 0.003 0.253s-0.099 0.145-0.181 0.176c-0.011 0.004-0.041 0.014-0.052 0.017l-0.951 0.431c-0.159 0.071-0.218 0.211-0.239 0.288-0.038 0.141-0.166 0.236-0.308 0.236zM6.108 5.19c-0.055 0-0.107 0.014-0.155 0.041-0.076 0.042-0.13 0.111-0.153 0.193s-0.013 0.169 0.028 0.244l0.878 1.58c0.047 0.085 0.134 0.146 0.23 0.162l0.753 0.12c0.112-0.19 0.278-0.342 0.48-0.433l0.727-0.328-0.183-0.41c-0.050-0.111-0.032-0.24 0.045-0.334l0.783-0.948c0.066-0.079 0.089-0.186 0.064-0.287l-0.262-1.019c-0.044-0.169-0.224-0.276-0.392-0.232-0.083 0.021-0.152 0.073-0.196 0.147s-0.056 0.161-0.035 0.245l0.182 0.705c0.026 0.099 0.002 0.204-0.063 0.283l-0.171 0.207c-0.070 0.085-0.177 0.13-0.29 0.114-0.11-0.015-0.204-0.085-0.249-0.187l-0.845-1.891c-0.070-0.157-0.265-0.234-0.425-0.162-0.163 0.073-0.236 0.263-0.163 0.426l1.344 3.008c0.048 0.107 0.033 0.232-0.038 0.325s-0.188 0.141-0.304 0.121l-0.352-0.056c-0.097-0.015-0.182-0.075-0.229-0.16l-0.727-1.306c-0.057-0.102-0.166-0.166-0.282-0.166z"></path>
<path fill="#44a4e0" style="fill: var(--color1, #44a4e0)" d="M16.716 9.080v0l-1.4-0.001c-0.102 0-0.198-0.049-0.258-0.131s-0.078-0.189-0.046-0.286c0.009-0.032 0.017-0.057 0.027-0.082l1.031-2.295-0.655-0.797c-0.195-0.233-0.266-0.553-0.189-0.852l0.264-1.021c0.128-0.503 0.663-0.821 1.17-0.691 0.249 0.064 0.458 0.221 0.588 0.442 0.027 0.045 0.050 0.093 0.069 0.141l0.269-0.599c0.211-0.469 0.8-0.694 1.271-0.483 0.483 0.216 0.701 0.786 0.485 1.271l-0.436 0.971c0.274-0.139 0.628-0.138 0.905 0.018 0.223 0.125 0.385 0.33 0.455 0.577s0.039 0.507-0.087 0.731l-0.88 1.577c-0.145 0.26-0.396 0.436-0.69 0.482l-1.318 0.208-0.284 0.632c-0.052 0.115-0.167 0.189-0.293 0.189zM15.803 8.439l0.705 0.001 0.27-0.601c0.044-0.098 0.135-0.168 0.242-0.185l1.489-0.236c0.097-0.015 0.183-0.075 0.23-0.16l0.88-1.578c0.043-0.076 0.052-0.162 0.029-0.244s-0.077-0.151-0.151-0.193c-0.154-0.086-0.355-0.026-0.439 0.125l-0.728 1.305c-0.048 0.086-0.133 0.145-0.23 0.16l-0.353 0.056c-0.116 0.018-0.233-0.029-0.304-0.122s-0.086-0.218-0.038-0.326l1.351-3.007c0.072-0.162-0-0.352-0.162-0.425-0.16-0.073-0.355 0.005-0.426 0.162l-0.849 1.889c-0.045 0.101-0.14 0.171-0.25 0.186-0.111 0.017-0.22-0.029-0.29-0.115l-0.169-0.207c-0.064-0.079-0.088-0.184-0.062-0.282l0.182-0.706c0.022-0.084 0.009-0.171-0.034-0.245s-0.113-0.126-0.196-0.148c-0.17-0.042-0.348 0.062-0.391 0.23l-0.264 1.022c-0.026 0.1-0.003 0.206 0.061 0.283l0.783 0.951c0.077 0.094 0.095 0.223 0.045 0.335l-0.931 2.073z"></path>
<path fill="#44a4e0" style="fill: var(--color1, #44a4e0)" d="M10.662 15.279v0c-0.178-0-0.32-0.144-0.32-0.32 0-0.134-0.051-0.259-0.146-0.353s-0.22-0.146-0.353-0.146c0 0 0 0-0 0-0.133 0-0.259 0.052-0.353 0.146s-0.147 0.219-0.147 0.352c0 0.177-0.143 0.32-0.32 0.32s-0.32-0.143-0.32-0.32c0-0.305 0.119-0.591 0.335-0.806s0.501-0.332 0.805-0.332c0 0 0.001 0 0.001 0 0.304 0 0.591 0.119 0.805 0.334s0.333 0.502 0.333 0.806c-0 0.177-0.143 0.32-0.32 0.32z"></path>
<path fill="#44a4e0" style="fill: var(--color1, #44a4e0)" d="M16.41 15.284v0c-0.177-0-0.32-0.144-0.32-0.32 0-0.134-0.051-0.259-0.146-0.353s-0.22-0.146-0.353-0.146h-0c-0.133 0-0.259 0.052-0.353 0.146s-0.146 0.219-0.146 0.352c0 0.177-0.143 0.32-0.32 0.32s-0.32-0.143-0.32-0.32c0-0.305 0.119-0.591 0.335-0.806s0.501-0.332 0.805-0.332h0.001c0.304 0 0.591 0.119 0.805 0.334s0.333 0.502 0.333 0.806c-0 0.177-0.143 0.32-0.32 0.32z"></path>
<path fill="#44a4e0" style="fill: var(--color1, #44a4e0)" d="M11.66 18.828h-0.001c-0.757-0-1.374-0.618-1.374-1.376 0-0.177 0.143-0.32 0.32-0.32s0.32 0.143 0.32 0.32c0 0.405 0.329 0.736 0.735 0.736h0c0.196 0 0.381-0.076 0.519-0.215s0.215-0.323 0.215-0.519l0.001-0.728c0-0.177 0.143-0.32 0.32-0.32h0c0.177 0 0.32 0.144 0.32 0.32l-0.001 0.727c0 0.366-0.143 0.712-0.403 0.972s-0.605 0.402-0.972 0.402z"></path>
<path fill="#44a4e0" style="fill: var(--color1, #44a4e0)" d="M13.77 18.83c-0.001 0-0.001 0-0.002 0-0.757-0-1.374-0.618-1.374-1.376l0.001-0.728c0-0.177 0.143-0.32 0.32-0.32h0c0.177 0 0.32 0.144 0.32 0.32l-0.001 0.727c0 0.405 0.329 0.735 0.735 0.736h0.001c0.196 0 0.38-0.076 0.518-0.215s0.215-0.323 0.215-0.519c0-0.177 0.143-0.32 0.32-0.32s0.32 0.143 0.32 0.32c0 0.367-0.143 0.713-0.403 0.972s-0.604 0.402-0.971 0.402z"></path>
<path fill="#44a4e0" style="fill: var(--color1, #44a4e0)" d="M12.715 17.046c-0.163 0-0.317-0.064-0.435-0.18l-0.888-0.89c-0.176-0.175-0.23-0.438-0.134-0.671 0.098-0.233 0.322-0.382 0.572-0.382l1.774 0.002c0.252 0 0.476 0.151 0.57 0.384s0.042 0.495-0.136 0.671l-0.887 0.885c-0.116 0.116-0.275 0.181-0.436 0.181zM11.83 15.564l0.885 0.833 0.833-0.832-1.718-0.002z"></path>
<path fill="#44a4e0" style="fill: var(--color1, #44a4e0)" d="M7.192 12.382c-0.012 0-0.024-0.001-0.037-0.002-0.112-0.013-0.209-0.084-0.255-0.187l-1.95-4.335c-0.046-0.103-0.035-0.222 0.029-0.315s0.174-0.141 0.286-0.135l2.388 0.178c0.11-0.216 0.289-0.388 0.515-0.489l0.978-0.44c0.222-0.1 0.473-0.119 0.707-0.060l1.451-1.904c0.068-0.089 0.175-0.136 0.291-0.124 0.112 0.013 0.209 0.084 0.255 0.187l1.95 4.337c0.046 0.103 0.035 0.222-0.029 0.315s-0.174 0.141-0.286 0.135l-2.387-0.179c-0.11 0.216-0.289 0.387-0.515 0.489l-0.977 0.44c-0.224 0.1-0.474 0.12-0.707 0.060l-1.452 1.905c-0.061 0.079-0.155 0.125-0.255 0.125zM5.755 8.086l1.509 3.355 1.272-1.669c0.098-0.128 0.275-0.163 0.413-0.084 0.122 0.069 0.268 0.078 0.395 0.021l0.977-0.44c0.127-0.057 0.217-0.169 0.247-0.31 0.034-0.157 0.186-0.262 0.337-0.252l2.092 0.157-1.509-3.356-1.271 1.668c-0.098 0.127-0.274 0.163-0.412 0.084-0.122-0.069-0.271-0.078-0.395-0.021l-0.977 0.441c-0.127 0.057-0.217 0.169-0.247 0.31-0.034 0.157-0.187 0.258-0.337 0.252l-2.093-0.156z"></path>
<path fill="#44a4e0" style="fill: var(--color1, #44a4e0)" d="M14.993 21.486c0 0 0 0 0 0s-0.003 0-0.003 0l-4.559-0.004c-2.27-0.002-4.116-1.851-4.115-4.122l0.004-4.719c-1.911-0.279-3.366-1.932-3.364-3.893 0-0.177 0.143-0.32 0.32-0.32 0 0 0 0 0 0l2.426 0.002c0.126 0 0.24 0.074 0.291 0.189l1.27 2.822 1.272-1.669c0.098-0.128 0.275-0.163 0.413-0.084 0.122 0.069 0.268 0.078 0.395 0.021l0.977-0.44c0.127-0.057 0.217-0.169 0.247-0.31 0.034-0.157 0.186-0.262 0.337-0.252l2.093 0.157c-0.033-0.093-0.021-0.197 0.033-0.281 0.059-0.091 0.16-0.146 0.269-0.146l8.868 0.008c0.177 0 0.32 0.144 0.32 0.32-0.002 1.961-1.459 3.612-3.371 3.887l-0.004 4.719c-0.002 2.269-1.85 4.115-4.119 4.115zM6.964 12.287c0.006 0.026 0.008 0.055 0.007 0.083l-0.005 0.078c-0.003 0.034-0.006 0.067-0.006 0.102l-0.004 4.81c-0.002 1.918 1.557 3.479 3.476 3.481l4.559 0.004 0.003 0.32v-0.32c1.917 0 3.477-1.559 3.479-3.476l0.004-4.81c0-0.036-0.003-0.072-0.005-0.108l-0.005-0.072c-0.009-0.175 0.125-0.325 0.299-0.335 1.619-0.104 2.909-1.378 3.066-2.962l-8.036-0.007 0.006 0.014c0.046 0.103 0.035 0.222-0.029 0.315s-0.174 0.141-0.286 0.135l-2.387-0.179c-0.11 0.216-0.289 0.387-0.515 0.489l-0.977 0.44c-0.224 0.1-0.473 0.12-0.707 0.060l-1.452 1.905c-0.068 0.089-0.178 0.134-0.291 0.124-0.073-0.008-0.141-0.042-0.192-0.093zM3.612 9.068c0.153 1.584 1.442 2.86 3.060 2.967 0.075 0.005 0.142 0.035 0.193 0.081l-1.37-3.046-1.883-0.001z"></path>
</symbol>
<symbol id="icon-flower_icq_media_network_social_icon" viewBox="0 0 32 32">
<path d="M12.267 31.333c-0.533 0-1.067-0.133-1.733-0.267-0.933-0.267-1.6-0.667-2.133-1.067-0.533-0.533-0.8-0.933-1.067-1.333-0.8-1.467-0.933-2.8-0.4-4.267l0.267-0.667c-0.533 0-1.2 0-1.733-0.133-0.533 0-1.067-0.267-1.6-0.667-0.4-0.267-0.667-0.667-0.933-0.933-0.533-0.933-0.667-1.867-0.4-2.8 0.267-0.667 0.533-1.333 1.067-1.733-0.533-0.133-0.933-0.4-1.333-0.8s-0.8-0.8-1.067-1.2c-0.667-1.2-0.8-2.533-0.267-3.867s1.467-2.4 2.8-3.067c1.2-0.667 2.4-0.8 3.6-0.667-0.267-1.067-0.267-2-0.133-3.067 0.267-1.333 0.933-2.4 1.867-2.933 1.067-0.533 1.867-0.533 3.067-0.4 1.2 0.267 2.133 0.933 2.8 2 0.533-0.933 1.333-1.733 2.267-2.133 1.333-0.667 2.667-0.8 4.133-0.533 1.467 0.4 2.533 1.067 3.2 2.267l0.133 0.133c0.8 1.333 0.933 2.8 0.533 4.267h0.133c0.933-0.133 1.6 0 2.267 0.133 1.2 0.4 2.133 0.933 2.667 2 0 0.133 0.133 0.133 0.133 0.267 0.4 0.933 0.533 1.733 0.133 2.8-0.4 0.933-0.933 1.733-1.867 2.4 0.133 0.133 0.267 0.133 0.4 0.267 0.533 0.4 0.933 0.933 1.333 1.467l0.267 0.4c0.667 1.333 0.8 2.667 0.4 4.133s-1.333 2.667-2.667 3.333c-1.333 0.667-2.667 0.8-4.267 0.267-0.133 0-0.267 0-0.4-0.133 0 0.667 0 1.2-0.133 1.867-0.267 1.067-0.933 1.867-1.733 2.4s-1.867 0.667-2.933 0.4c-0.667-0.133-1.2-0.533-1.867-1.067-0.533 1.067-1.333 1.867-2.4 2.533-0.667 0.133-1.6 0.4-2.4 0.4zM8.533 22.133c0.267 0 0.4 0.133 0.533 0.267 0.133 0.267 0.133 0.533 0 0.8l-0.8 1.2-0.133 0.4c-0.4 1.067-0.267 2 0.267 3.067 0.267 0.267 0.533 0.667 0.8 1.067 0.4 0.267 0.8 0.533 1.6 0.8 1.2 0.267 2.267 0.267 3.2-0.267s1.6-1.333 2-2.4v-0.133c0-0.267 0.267-0.4 0.533-0.533s0.533 0 0.667 0.133c0.8 0.8 1.467 1.333 2 1.467 0.8 0.267 1.333 0.133 1.867-0.267s0.933-0.933 1.2-1.6c0.133-0.8 0.133-1.6 0-2.533 0-0.267 0-0.533 0.267-0.667s0.533-0.133 0.8 0c0.4 0.267 0.667 0.4 1.2 0.533 1.333 0.4 2.267 0.267 3.2-0.133 0.933-0.533 1.6-1.333 2-2.533 0.267-1.067 0.133-2.133-0.4-3.067v-0.267c-0.267-0.533-0.533-0.8-0.933-1.067s-0.8-0.4-1.2-0.667c-0.267-0.133-0.4-0.4-0.4-0.667s0.133-0.533 0.4-0.667c1.2-0.533 2-1.333 2.267-2.267 0.267-0.667 0.133-1.2-0.133-1.867 0 0 0-0.133-0.133-0.133-0.4-0.667-0.933-1.067-1.733-1.2-0.4-0.133-1.067-0.133-1.733 0l-1.333 0.267c-0.267 0-0.533 0-0.667-0.267-0.133-0.133-0.133-0.4-0.133-0.667l0.4-1.067c0.4-1.067 0.267-2.133-0.4-3.2l-0.133-0.133c-0.533-0.933-1.333-1.467-2.4-1.733-1.2-0.267-2.133-0.133-3.2 0.4s-1.733 1.333-2 2.4c0 0 0 0 0 0.133v0.267c0 0.267-0.267 0.533-0.533 0.533s-0.533-0.133-0.667-0.4l-0.533-1.067c-0.533-0.8-1.2-1.333-2.133-1.6-0.933-0.133-1.6-0.133-2.267 0.267s-1.067 1.067-1.2 2c-0.133 1.067 0 2 0.533 3.067l0.267 0.4c0.133 0.133 0.133 0.533 0 0.8-0.133 0.133-0.4 0.267-0.8 0.133l-0.933-0.267c-0.933-0.267-2.133-0.133-3.2 0.4-0.933 0.533-1.6 1.333-2.133 2.4-0.4 0.933-0.4 1.867 0.133 2.667 0.133 0.267 0.4 0.667 0.8 0.933 0.4 0.4 0.933 0.667 1.6 0.8l0.4 0.133c0.267 0.133 0.4 0.267 0.4 0.533s0 0.533-0.267 0.667l-0.667 0.533c-0.4 0.4-0.8 0.8-0.933 1.467-0.133 0.533-0.133 1.067 0.267 1.6 0.133 0.267 0.267 0.4 0.533 0.533 0.4 0.267 0.667 0.4 0.933 0.4 1.067 0.267 1.867 0.133 2.667-0.133 0.267 0 0.267 0 0.4 0zM15.733 19.6c-0.933 0-1.867-0.4-2.4-1.067-0.667-0.533-1.067-1.467-1.067-2.4s0.4-1.6 1.067-2.4c0.667-0.667 1.6-0.933 2.4-0.933 0.933 0 1.733 0.4 2.4 0.933 0.667 0.667 1.067 1.467 1.067 2.4 0 1.067-0.4 1.867-1.067 2.4-0.667 0.8-1.467 1.067-2.4 1.067zM15.733 14.133c-0.533 0-1.067 0.133-1.6 0.533-0.4 0.4-0.667 0.933-0.667 1.467s0.267 1.067 0.667 1.467c0.8 0.8 2.133 0.933 3.067 0 0.4-0.4 0.667-0.8 0.667-1.467 0-0.533-0.133-1.067-0.667-1.467-0.4-0.267-0.933-0.533-1.467-0.533z"></path>
<path d="M8.533 23.467c-0.267 0-0.4-0.133-0.533-0.267-0.267-0.267-0.133-0.667 0.133-0.933l5.733-4.267c0.267-0.267 0.667-0.133 0.933 0.133s0.133 0.667-0.133 0.933l-5.733 4.267c-0.133 0.133-0.267 0.133-0.4 0.133z"></path>
<path d="M16.8 27.733c-0.4 0-0.667-0.267-0.667-0.533l-0.8-7.733c0-0.4 0.267-0.667 0.533-0.667 0.4 0 0.667 0.267 0.667 0.533l0.8 7.733c0.133 0.4-0.133 0.667-0.533 0.667 0 0 0 0 0 0z"></path>
<path d="M5.067 17.733c-0.4 0-0.667-0.267-0.667-0.667s0.267-0.667 0.667-0.667l7.6-0.667c0.4 0 0.667 0.267 0.667 0.667s-0.267 0.667-0.667 0.667l-7.6 0.667c0 0 0 0 0 0z"></path>
<path d="M14.267 14.533c-0.133 0-0.267 0-0.4-0.133l-5.467-5.067c-0.267-0.133-0.4-0.667-0.133-0.933s0.667-0.267 0.933 0l5.467 4.933c0.267 0.267 0.267 0.667 0 0.933 0 0.267-0.267 0.267-0.4 0.267z"></path>
<path d="M15.067 14c-0.4 0-0.667-0.267-0.667-0.667v-8.533c0-0.4 0.267-0.667 0.667-0.667s0.667 0.267 0.667 0.667v8.533c0 0.4-0.267 0.667-0.667 0.667z"></path>
<path d="M17.867 14.533c-0.133 0-0.4-0.133-0.533-0.267-0.267-0.267-0.267-0.667 0.133-0.933l6.267-5.333c0.267-0.267 0.667-0.267 0.933 0.133 0.267 0.267 0.267 0.667-0.133 0.933l-6.267 5.333c0 0.133-0.133 0.133-0.4 0.133z"></path>
<path d="M18.8 16.667c-0.4 0-0.667-0.267-0.667-0.533 0-0.4 0.267-0.667 0.533-0.8l8.4-0.933c0.4 0 0.667 0.267 0.8 0.533 0 0.4-0.267 0.667-0.533 0.8l-8.533 0.933c0.133 0 0.133 0 0 0z"></path>
<path d="M23.333 24.4c-0.133 0-0.4 0-0.533-0.133l-5.467-5.333c-0.267-0.267-0.267-0.667 0-0.933s0.667-0.267 0.933 0l5.467 5.333c0.267 0.267 0.267 0.667 0 0.933 0 0-0.133 0.133-0.4 0.133z"></path>
</symbol>
<symbol id="icon-celebration-day_christianity_easter_flower_holiday_icon" viewBox="0 0 32 32">
<path fill="#394b9f" style="fill: var(--color2, #394b9f)" d="M16 15.488c-0.16 0-0.288-0.064-0.416-0.16s-2.784-2.624-2.784-6.368 2.688-6.304 2.784-6.4c0.224-0.224 0.576-0.224 0.8 0 0.128 0.096 2.784 2.624 2.784 6.368s-2.656 6.272-2.784 6.368c-0.096 0.128-0.224 0.192-0.384 0.192zM16 3.872c-0.672 0.8-1.984 2.656-1.984 5.088s1.312 4.288 1.984 5.088c0.672-0.8 1.984-2.656 1.984-5.088s-1.312-4.288-1.984-5.088z"></path>
<path fill="#394b9f" style="fill: var(--color2, #394b9f)" d="M16 15.488c-2.496 0-4.32-0.704-5.408-2.112-1.536-1.984-1.12-4.608-0.864-5.632 0.544-2.208-0.864-4.384-0.864-4.416-0.128-0.192-0.128-0.416-0.032-0.608s0.288-0.32 0.512-0.32c4.64 0 5.216 3.488 5.248 3.52 0.032 0.096 0 0.224-0.032 0.32-0.352 0.896-0.544 1.792-0.544 2.688 0 3.264 2.368 5.504 2.4 5.504 0.192 0.16 0.224 0.416 0.16 0.64-0.128 0.256-0.32 0.416-0.576 0.416zM10.368 3.648c0.448 0.992 0.928 2.624 0.512 4.352-0.16 0.672-0.64 3.008 0.64 4.64 0.672 0.864 1.696 1.376 3.136 1.568-0.8-1.088-1.824-2.944-1.824-5.28 0-0.992 0.192-1.984 0.544-2.976-0.128-0.448-0.736-1.952-3.008-2.304z"></path>
<path fill="#394b9f" style="fill: var(--color2, #394b9f)" d="M16 15.488c-0.256 0-0.448-0.16-0.544-0.384s-0.032-0.48 0.16-0.64c0.032-0.032 2.4-2.272 2.4-5.504 0-0.896-0.192-1.792-0.544-2.688-0.032-0.064-0.032-0.16-0.032-0.224 0-0.576 0.96-3.616 5.248-3.616 0.224 0 0.416 0.128 0.512 0.32s0.096 0.416-0.032 0.608c0 0.032-1.44 2.176-0.864 4.416 0.256 1.024 0.704 3.648-0.864 5.632-1.12 1.376-2.944 2.080-5.44 2.080zM18.624 5.984c0.384 0.96 0.544 1.984 0.544 2.976 0 2.336-1.024 4.16-1.824 5.28 1.408-0.192 2.464-0.736 3.136-1.568 1.248-1.6 0.8-3.936 0.64-4.64-0.416-1.728 0.064-3.36 0.512-4.352-2.272 0.32-2.88 1.824-3.008 2.304z"></path>
<path fill="#394b9f" style="fill: var(--color2, #394b9f)" d="M15.424 14.88h1.184v14.112h-1.184v-14.112z"></path>
<path fill="#394b9f" style="fill: var(--color2, #394b9f)" d="M13.696 21.024c-2.336 0-4.096-0.96-5.248-1.856-1.632-1.312-2.432-2.848-2.464-2.912-0.096-0.192-0.096-0.416 0.032-0.576 0.096-0.16 0.288-0.288 0.512-0.288 7.2 0 9.856 4.256 9.952 4.416s0.128 0.352 0.032 0.544c-0.064 0.16-0.224 0.288-0.384 0.352-0.864 0.224-1.664 0.32-2.432 0.32zM7.648 16.64c1.024 1.376 3.36 3.744 7.296 3.136-0.928-1.056-3.168-2.88-7.296-3.136z"></path>
<path fill="#394b9f" style="fill: var(--color2, #394b9f)" d="M18.304 21.024c-0.768 0-1.568-0.096-2.464-0.32-0.192-0.032-0.32-0.192-0.384-0.352s-0.064-0.384 0.032-0.544c0.096-0.192 2.784-4.416 9.952-4.416 0.192 0 0.384 0.096 0.512 0.288 0.096 0.16 0.128 0.384 0.032 0.576-0.032 0.064-0.8 1.6-2.464 2.912-1.12 0.928-2.88 1.856-5.216 1.856zM17.056 19.744c3.936 0.64 6.304-1.76 7.296-3.104-4.128 0.256-6.368 2.080-7.296 3.104z"></path>
<path fill="#394b9f" style="fill: var(--color2, #394b9f)" d="M2.976 28.416h26.016v1.184h-26.016v-1.184z"></path>
</symbol>
<symbol id="icon-blossom_decoration_flower_garden_plant_icon" viewBox="0 0 32 32">
<path d="M31.745 20.106c-0.096-0.132-2.39-3.238-5.98-4.059-2.951-0.672-5.783 0.427-6.777 0.88 0.018-0.131 0.041-0.261 0.041-0.398 0-0.383-0.079-0.746-0.212-1.082 1.151-0.031 4.078-0.297 6.393-2.143 2.879-2.294 3.599-6.091 3.628-6.251 0.022-0.122-0.010-0.246-0.086-0.342s-0.192-0.155-0.315-0.16c-0.163-0.011-4.023-0.151-6.901 2.145-2.242 1.788-3.172 4.478-3.489 5.66-0.354-0.318-0.783-0.553-1.261-0.668 0.723-0.977 2.259-3.389 2.259-6.267 0-3.681-2.519-6.61-2.626-6.734-0.161-0.186-0.481-0.186-0.643 0-0.108 0.123-2.626 3.052-2.626 6.734 0 2.878 1.535 5.289 2.258 6.267-0.487 0.118-0.924 0.358-1.282 0.686-0.279-1.099-1.195-3.941-3.525-5.799-2.879-2.295-6.739-2.155-6.901-2.145-0.124 0.005-0.238 0.064-0.315 0.16s-0.109 0.221-0.086 0.342c0.029 0.16 0.749 3.955 3.627 6.251 2.395 1.91 5.444 2.129 6.505 2.146-0.166 0.368-0.265 0.772-0.265 1.202 0 0.114 0.021 0.222 0.033 0.332-0.771-0.375-3.798-1.692-6.962-0.967-3.589 0.819-5.885 3.925-5.98 4.058-0.073 0.1-0.098 0.226-0.071 0.346 0.028 0.119 0.106 0.223 0.214 0.282 0.117 0.063 2.412 1.275 5.202 1.275 0.63 0 1.285-0.063 1.947-0.213 3.218-0.734 5.391-3.301 5.875-3.92 0.227 0.508 0.591 0.941 1.049 1.247-0.459 0.206-3.717 1.757-5.233 4.902-1.598 3.317-0.599 7.049-0.556 7.206 0.033 0.118 0.115 0.218 0.226 0.271 0.059 0.028 0.122 0.043 0.185 0.043 0.058 0 0.114-0.012 0.169-0.034 0.149-0.065 3.69-1.612 5.287-4.927 1.513-3.14 0.699-6.649 0.572-7.147 0.307 0.109 0.633 0.18 0.976 0.18 0.231 0 0.454-0.034 0.671-0.085-0.148 0.591-0.909 4.033 0.578 7.119 1.598 3.316 5.137 4.864 5.287 4.928 0.053 0.022 0.111 0.034 0.167 0.034 0.064 0 0.127-0.015 0.186-0.043 0.111-0.053 0.194-0.153 0.226-0.271 0.043-0.157 1.042-3.889-0.556-7.207-1.347-2.797-4.069-4.33-4.98-4.782-0.021-0.045-0.047-0.086-0.081-0.119 0.438-0.263 0.797-0.636 1.049-1.082 0.594 0.739 2.721 3.135 5.81 3.84 0.661 0.151 1.316 0.213 1.947 0.213 2.79 0 5.085-1.213 5.202-1.275 0.109-0.059 0.187-0.161 0.213-0.282 0.029-0.121 0.002-0.247-0.070-0.347zM7.357 20.81c-2.537 0.578-5.059-0.319-6.081-0.761 0.73-0.842 2.614-2.743 5.149-3.323 2.067-0.471 4.109 0.035 5.354 0.479l-2.873 0.795c-0.227 0.064-0.361 0.298-0.298 0.525 0.052 0.19 0.224 0.314 0.412 0.314 0.037 0 0.076-0.005 0.113-0.016l2.865-0.793c-0.925 0.941-2.557 2.303-4.641 2.78zM13.779 26.058c-1.129 2.342-3.404 3.756-4.386 4.281-0.204-1.092-0.518-3.748 0.613-6.097 0.91-1.888 2.554-3.162 3.676-3.863l-1.258 2.64c-0.101 0.212-0.011 0.467 0.202 0.569 0.059 0.028 0.122 0.042 0.182 0.042 0.16 0 0.313-0.091 0.386-0.244l1.301-2.732c0.163 1.303 0.224 3.454-0.717 5.406zM22.066 9.363c2.032-1.621 4.695-1.907 5.808-1.954-0.292 1.075-1.165 3.607-3.197 5.228-1.746 1.392-3.95 1.798-5.245 1.915l2.333-2.027c0.177-0.155 0.197-0.423 0.042-0.602-0.156-0.179-0.423-0.198-0.602-0.043l-2.033 1.766c0.453-1.246 1.326-3.033 2.894-4.284zM16.096 1.663c0.658 0.898 2.094 3.158 2.094 5.759 0 2.119-0.949 3.999-1.659 5.114l0.046-3.296c0.003-0.236-0.185-0.429-0.421-0.432-0.002 0-0.003 0-0.005 0-0.233 0-0.423 0.187-0.427 0.421l-0.046 3.334c-0.71-1.11-1.676-3.004-1.676-5.14-0.001-2.601 1.436-4.862 2.094-5.76zM4.259 7.287c1.11 0.045 3.77 0.329 5.808 1.954v0c1.673 1.333 2.551 3.273 2.976 4.521l-2.578-1.901c-0.19-0.141-0.457-0.099-0.596 0.090-0.14 0.19-0.099 0.457 0.090 0.596l2.524 1.86c-1.312-0.14-3.367-0.57-5.026-1.892-2.034-1.621-2.905-4.155-3.197-5.228zM21.888 24.308c1.129 2.343 0.815 5.004 0.611 6.099-0.981-0.523-3.254-1.933-4.385-4.283-0.896-1.861-0.88-3.91-0.735-5.228l0.786 2.299c0.062 0.177 0.227 0.289 0.404 0.289 0.046 0 0.093-0.007 0.139-0.022 0.223-0.077 0.341-0.32 0.266-0.543l-0.869-2.542c1.12 0.685 2.844 1.981 3.783 3.931zM16.096 18.607c-1.147 0-2.079-0.932-2.079-2.078 0-1.147 0.932-2.079 2.079-2.079 1.146 0 2.078 0.932 2.078 2.079 0 1.146-0.932 2.078-2.078 2.078zM24.643 20.962c-2.093-0.478-3.731-1.853-4.654-2.794l2.802 1.054c0.049 0.019 0.1 0.028 0.15 0.028 0.173 0 0.335-0.107 0.399-0.277 0.083-0.221-0.028-0.467-0.249-0.549l-2.853-1.073c1.246-0.442 3.279-0.943 5.337-0.473 2.535 0.579 4.42 2.482 5.149 3.323-1.020 0.444-3.537 1.341-6.081 0.762z"></path>
<path d="M16.395 14.783c0 0.135-0.109 0.244-0.244 0.244s-0.244-0.109-0.244-0.244c0-0.135 0.109-0.244 0.244-0.244s0.244 0.109 0.244 0.244z"></path>
<path d="M15.979 15.68c0 0.135-0.109 0.244-0.244 0.244s-0.244-0.109-0.244-0.244c0-0.135 0.109-0.244 0.244-0.244s0.244 0.109 0.244 0.244z"></path>
<path d="M17.932 16.354c0 0.135-0.109 0.244-0.244 0.244s-0.244-0.109-0.244-0.244c0-0.135 0.109-0.244 0.244-0.244s0.244 0.109 0.244 0.244z"></path>
<path d="M14.782 17.116c0 0.135-0.109 0.244-0.244 0.244s-0.244-0.109-0.244-0.244c0-0.135 0.109-0.244 0.244-0.244s0.244 0.109 0.244 0.244z"></path>
<path d="M16.64 16.928c0 0.135-0.109 0.244-0.244 0.244s-0.244-0.109-0.244-0.244c0-0.135 0.109-0.244 0.244-0.244s0.244 0.109 0.244 0.244z"></path>
<path d="M17.185 17.793c0 0.135-0.109 0.244-0.244 0.244s-0.244-0.109-0.244-0.244c0-0.135 0.109-0.244 0.244-0.244s0.244 0.109 0.244 0.244z"></path>
<path d="M16.585 15.68c0 0.135-0.109 0.244-0.244 0.244s-0.244-0.109-0.244-0.244c0-0.135 0.109-0.244 0.244-0.244s0.244 0.109 0.244 0.244z"></path>
<path d="M16.585 16.262c0 0.135-0.109 0.244-0.244 0.244s-0.244-0.109-0.244-0.244c0-0.135 0.109-0.244 0.244-0.244s0.244 0.109 0.244 0.244z"></path>
<path d="M17.185 16.354c0 0.135-0.109 0.244-0.244 0.244s-0.244-0.109-0.244-0.244c0-0.135 0.109-0.244 0.244-0.244s0.244 0.109 0.244 0.244z"></path>
<path d="M16.821 14.842c0.134 0.016 0.229 0.138 0.213 0.272s-0.138 0.229-0.272 0.213c-0.134-0.016-0.229-0.138-0.213-0.272s0.138-0.229 0.272-0.213z"></path>
<path d="M15.453 14.662c0.134 0.016 0.229 0.138 0.213 0.272s-0.138 0.229-0.272 0.213c-0.134-0.016-0.229-0.138-0.213-0.272s0.138-0.229 0.272-0.213z"></path>
<path d="M17.605 17.003c0 0.135-0.109 0.244-0.244 0.244s-0.244-0.109-0.244-0.244c0-0.135 0.109-0.244 0.244-0.244s0.244 0.109 0.244 0.244z"></path>
<path d="M17.605 15.68c0 0.135-0.109 0.244-0.244 0.244s-0.244-0.109-0.244-0.244c0-0.135 0.109-0.244 0.244-0.244s0.244 0.109 0.244 0.244z"></path>
<path d="M15.685 16.262c0 0.135-0.109 0.244-0.244 0.244s-0.244-0.109-0.244-0.244c0-0.135 0.109-0.244 0.244-0.244s0.244 0.109 0.244 0.244z"></path>
<path d="M15.931 16.871c0 0.135-0.109 0.244-0.244 0.244s-0.244-0.109-0.244-0.244c0-0.135 0.109-0.244 0.244-0.244s0.244 0.109 0.244 0.244z"></path>
<path d="M15.422 17.305c0 0.135-0.109 0.244-0.244 0.244s-0.244-0.109-0.244-0.244c0-0.135 0.109-0.244 0.244-0.244s0.244 0.109 0.244 0.244z"></path>
<path d="M15.372 15.435c0 0.135-0.109 0.244-0.244 0.244s-0.244-0.109-0.244-0.244c0-0.135 0.109-0.244 0.244-0.244s0.244 0.109 0.244 0.244z"></path>
<path d="M14.883 15.68c0 0.135-0.109 0.244-0.244 0.244s-0.244-0.109-0.244-0.244c0-0.135 0.109-0.244 0.244-0.244s0.244 0.109 0.244 0.244z"></path>
<path d="M16.489 17.743c0 0.135-0.109 0.244-0.244 0.244s-0.244-0.109-0.244-0.244c0-0.135 0.109-0.244 0.244-0.244s0.244 0.109 0.244 0.244z"></path>
<path d="M15.667 18.131c0 0.135-0.109 0.244-0.244 0.244s-0.244-0.109-0.244-0.244c0-0.135 0.109-0.244 0.244-0.244s0.244 0.109 0.244 0.244z"></path>
<path d="M14.883 16.354c0 0.135-0.109 0.244-0.244 0.244s-0.244-0.109-0.244-0.244c0-0.135 0.109-0.244 0.244-0.244s0.244 0.109 0.244 0.244z"></path>
</symbol>
<symbol id="icon-animal_domestic_pet_turtle_wild_icon" viewBox="0 0 32 32">
<path stroke-linejoin="round" stroke-linecap="round" stroke-miterlimit="10" stroke-width="0.8533" d="M18.652 10.027c0.473-0.679 0.761-1.577 0.761-2.561 0-2.121-1.337-3.84-2.987-3.84s-2.987 1.719-2.987 3.84c0 0.984 0.288 1.881 0.761 2.561"></path>
<path stroke-linejoin="round" stroke-linecap="round" stroke-miterlimit="10" stroke-width="0.8533" d="M11.33 22.855c-0.3 1.084-0.973 4.071 0.286 5.403 1.553 1.643 2.677 1.446 2.677-2.544 0-0.203-0.007-0.394-0.021-0.573"></path>
<path stroke-linejoin="round" stroke-linecap="round" stroke-miterlimit="10" stroke-width="0.8533" d="M21.544 22.928c0.308 1.14 0.925 4.026-0.307 5.329-1.553 1.643-2.677 1.446-2.677-2.544 0-0.183 0.006-0.356 0.017-0.52"></path>
<path stroke-linejoin="round" stroke-linecap="round" stroke-miterlimit="10" stroke-width="0.8533" d="M11.017 11.306c-0.973-0.732-2.726-1.884-3.893-1.682-1.691 0.292-1.791 2.687-1.791 3.466s0.783 5.81 1.657 5.452c0.874-0.357 1.731-3.724 1.731-3.724s0.282 0.334 0.773 0.634"></path>
<path stroke-linejoin="round" stroke-linecap="round" stroke-miterlimit="10" stroke-width="0.8533" d="M21.835 11.306c0.973-0.732 2.726-1.885 3.894-1.683 1.691 0.292 1.791 2.687 1.791 3.466s-0.783 5.81-1.657 5.452c-0.875-0.357-1.731-3.724-1.731-3.724s-0.249 0.294-0.684 0.579"></path>
<path stroke-linejoin="round" stroke-linecap="round" stroke-miterlimit="10" stroke-width="0.8533" d="M16.427 25.387c3.77 0 6.827-3.629 6.827-8.107s-0.563-7.253-6.827-7.253-6.827 2.776-6.827 7.253 3.056 8.107 6.827 8.107z"></path>
<path stroke-linejoin="round" stroke-linecap="round" stroke-miterlimit="10" stroke-width="0.8533" d="M16.427 12.16l2.987 1.707v3.413l-2.987 1.707-2.987-1.707v-3.413z"></path>
<path stroke-linejoin="round" stroke-linecap="round" stroke-miterlimit="10" stroke-width="0.8533" d="M15.573 6.187c-0.471 0-0.853 0.382-0.853 0.853"></path>
<path stroke-linejoin="round" stroke-linecap="round" stroke-miterlimit="10" stroke-width="0.8533" d="M17.28 6.187c0.471 0 0.853 0.382 0.853 0.853"></path>
<path stroke-linejoin="round" stroke-linecap="round" stroke-miterlimit="10" stroke-width="0.8533" d="M16.427 18.987v5.973"></path>
<path stroke-linejoin="round" stroke-linecap="round" stroke-miterlimit="10" stroke-width="0.8533" d="M16.427 12.16v-2.133"></path>
<path stroke-linejoin="round" stroke-linecap="round" stroke-miterlimit="10" stroke-width="0.8533" d="M13.44 13.867l-2.987-1.28"></path>
<path stroke-linejoin="round" stroke-linecap="round" stroke-miterlimit="10" stroke-width="0.8533" d="M13.44 17.28l-3.413 2.133"></path>
<path stroke-linejoin="round" stroke-linecap="round" stroke-miterlimit="10" stroke-width="0.8533" d="M19.413 13.867l2.987-1.28"></path>
<path stroke-linejoin="round" stroke-linecap="round" stroke-miterlimit="10" stroke-width="0.8533" d="M19.413 17.28l3.413 2.133"></path>
</symbol>
<symbol id="icon-animal_domestic_frog_pet_wild_icon" viewBox="0 0 32 32">
<path stroke-linejoin="round" stroke-linecap="round" stroke-miterlimit="10" stroke-width="0.8533" d="M16.64 29.013h-8.004c-0.698 0-0.747-0.241-0.117-0.533l2.664-1.239c-0.758-0.688-1.664-1.93-2.458-3.449-1.352-2.589-1.865-5.003-1.146-5.392 0.347-0.188 0.917 0.13 1.566 0.8"></path>
<path stroke-linejoin="round" stroke-linecap="round" stroke-miterlimit="10" stroke-width="0.8533" d="M16.213 29.013h8.004c0.698 0 0.747-0.241 0.117-0.533l-2.664-1.239c0.759-0.688 1.664-1.93 2.458-3.449 1.352-2.589 1.865-5.003 1.146-5.392-0.416-0.225-1.152 0.276-1.96 1.238"></path>
<path stroke-linejoin="round" stroke-linecap="round" stroke-miterlimit="10" stroke-width="0.8533" d="M9.878 18.202c-0.585 1.040-0.918 2.238-0.918 3.514 0 3.981 3.247 7.298 7.253 7.298s7.253-3.317 7.253-7.298c0-1.286-0.339-2.493-0.932-3.539"></path>
<path stroke-linejoin="round" stroke-linecap="round" stroke-miterlimit="10" stroke-width="0.8533" d="M24.32 6.827c0-1.649-1.337-2.987-2.987-2.987-1.026 0-1.931 0.518-2.468 1.306-0.832-0.288-1.721-0.453-2.652-0.453s-1.82 0.164-2.652 0.453c-0.538-0.788-1.442-1.306-2.468-1.306-1.649 0-2.987 1.337-2.987 2.987 0 0.859 0.365 1.632 0.946 2.177-0.602 1.133-0.946 2.424-0.946 3.797 0 4.477 3.629 8.107 8.107 8.107s8.107-3.629 8.107-8.107c0-1.372-0.344-2.664-0.946-3.797 0.581-0.545 0.946-1.317 0.946-2.177z"></path>
<path stroke-linejoin="round" stroke-linecap="round" stroke-miterlimit="10" stroke-width="0.8533" d="M12.8 7.253c0 1.178-0.764 2.133-1.707 2.133s-1.707-0.955-1.707-2.133c0-1.178 0.764-2.133 1.707-2.133s1.707 0.955 1.707 2.133z"></path>
<path stroke-linejoin="round" stroke-linecap="round" stroke-miterlimit="10" stroke-width="0.8533" d="M11.52 6.4c0 0.236-0.191 0.427-0.427 0.427s-0.427-0.191-0.427-0.427c0-0.236 0.191-0.427 0.427-0.427s0.427 0.191 0.427 0.427z"></path>
<path stroke-linejoin="round" stroke-linecap="round" stroke-miterlimit="10" stroke-width="0.8533" d="M23.040 7.253c0 1.178-0.764 2.133-1.707 2.133s-1.707-0.955-1.707-2.133c0-1.178 0.764-2.133 1.707-2.133s1.707 0.955 1.707 2.133z"></path>
<path stroke-linejoin="round" stroke-linecap="round" stroke-miterlimit="10" stroke-width="0.8533" d="M21.76 6.4c0 0.236-0.191 0.427-0.427 0.427s-0.427-0.191-0.427-0.427c0-0.236 0.191-0.427 0.427-0.427s0.427 0.191 0.427 0.427z"></path>
<path stroke-linejoin="round" stroke-linecap="round" stroke-miterlimit="10" stroke-width="0.8533" d="M10.667 15.787c0 0 2.773 0.853 5.547 0.853s5.547-0.853 5.547-0.853"></path>
</symbol>
<symbol id="icon-advanture_camp_camping_nature_tent_icon" viewBox="0 0 32 32">
<path d="M19.912 28.278c-0.301 0-0.56-0.226-0.595-0.531-0.038-0.33 0.198-0.627 0.527-0.666l8.415-0.974 2.13-7.615c-5.911-2.226-10.006-10.299-11.345-15.337-0.085-0.32 0.106-0.649 0.426-0.734 0.323-0.086 0.65 0.106 0.734 0.426 1.622 6.101 5.953 13.106 11.092 14.689 0.311 0.096 0.489 0.422 0.402 0.735l-2.391 8.549c-0.066 0.234-0.267 0.406-0.51 0.434l-8.816 1.020c-0.023 0.002-0.046 0.003-0.069 0.003z"></path>
<path d="M12.151 29.882c-3.402 0-6.966-0.788-10.796-2.379-0.224-0.094-0.37-0.312-0.37-0.554v-7.015c0-0.018 0.001-0.035 0.002-0.052l-0.606-0.238c-0.2-0.078-0.342-0.257-0.374-0.469s0.052-0.426 0.22-0.559c5.424-4.317 7.852-8.383 7.874-13.188 0.001-0.28 0.196-0.522 0.47-0.583l10.923-2.43c0.19-0.042 0.384 0.009 0.529 0.137s0.218 0.317 0.198 0.509l-0.46 4.566c-0.002 0.573 0.054 1.209 0.112 1.882 0.047 0.541 0.093 1.085 0.11 1.63 0.041 1.352 0.044 2.726 0.046 4.054 0.006 2.56 0.011 5.206 0.293 7.763 0.513 4.653 0.459 5.669-4.179 6.551-1.31 0.25-2.638 0.374-3.993 0.374zM2.186 26.546c4.983 2.010 9.48 2.594 13.734 1.783 3.711-0.706 3.702-0.791 3.212-5.241-0.29-2.621-0.295-5.301-0.301-7.893-0.002-1.32-0.006-2.685-0.046-4.019-0.016-0.523-0.061-1.045-0.106-1.564-0.058-0.67-0.118-1.365-0.114-2.050l0.38-3.797-9.653 2.147c-0.167 4.746-2.511 8.799-7.517 12.988l6.482 2.539c0.309 0.121 0.461 0.469 0.34 0.778s-0.471 0.459-0.778 0.34l-5.634-2.206v6.194z"></path>
<path d="M9.071 29.052c-0.301 0-0.561-0.226-0.595-0.533l-0.722-6.358c-0.026-0.234 0.087-0.463 0.29-0.584 4.568-2.706 9.324-12.619 11.001-18.734 0.088-0.319 0.417-0.51 0.738-0.42 0.319 0.087 0.508 0.418 0.42 0.737-1.628 5.938-6.276 15.998-11.214 19.242l0.679 5.983c0.038 0.33-0.199 0.626-0.529 0.664-0.022 0.002-0.046 0.003-0.068 0.003z"></path>
</symbol>
<symbol id="icon-animal_circus_dog_show_icon" viewBox="0 0 32 32">
<path d="M18 23.5c0-1.103-0.897-2-2-2s-2 0.897-2 2 0.897 2 2 2 2-0.897 2-2zM15 23.5c0-0.552 0.448-1 1-1s1 0.448 1 1-0.448 1-1 1-1-0.448-1-1z"></path>
<path d="M31.25 28l-2.916-7h-2.925c0.056-0.157 0.092-0.324 0.092-0.5 0-1.023-0.619-1.901-1.5-2.288v-1.212c0-1.624-0.788-3.132-2.108-4.070-0.243-1.332-0.926-2.551-1.953-3.448 0.204-0.161 0.393-0.336 0.561-0.53v0.049h1c1.378 0 2.5-1.122 2.5-2.5 0-3.033-2.468-5.5-5.5-5.5h-0.222c-0.695-0.318-1.465-0.5-2.278-0.5s-1.583 0.182-2.278 0.5h-0.223c-3.033 0-5.5 2.467-5.5 5.5 0 1.378 1.121 2.5 2.5 2.5h1v-0.049c0.168 0.194 0.357 0.368 0.561 0.53-1.027 0.897-1.71 2.116-1.953 3.448-1.32 0.938-2.108 2.447-2.108 4.070v1.212c-0.881 0.387-1.5 1.265-1.5 2.288 0 0.176 0.036 0.343 0.092 0.5h-2.925l-2.917 7h12.75v4l2.5-1.875 2.5 1.875v-4h12.75zM28.5 24h-1v1h1.416l0.834 2h-11.25v-0.157c0.070-0.026 0.155-0.051 0.236-0.073 0.301-0.084 0.675-0.189 0.91-0.527 0.229-0.328 0.209-0.721 0.194-1.037-0.003-0.068-0.006-0.139-0.006-0.206h6.666v-1h-6.125c0.072-0.149 0.125-0.313 0.125-0.5 0-0.416-0.243-0.729-0.439-0.98-0.087-0.112-0.186-0.238-0.209-0.314-0.015-0.049-0.019-0.123-0.018-0.206h0.166c0.386 0 0.734-0.151 1-0.39 0.266 0.24 0.614 0.39 1 0.39h5.666l0.834 2zM14.218 26.101c-0.214-0.163-0.464-0.233-0.684-0.294-0.113-0.032-0.322-0.090-0.359-0.134-0.034-0.058-0.023-0.283-0.016-0.418 0.011-0.235 0.024-0.5-0.055-0.756-0.078-0.25-0.236-0.453-0.376-0.633-0.091-0.116-0.228-0.292-0.228-0.365s0.136-0.249 0.227-0.365c0.139-0.179 0.298-0.383 0.376-0.632 0.079-0.256 0.067-0.522 0.055-0.756-0.007-0.135-0.018-0.36 0.015-0.416 0.038-0.046 0.247-0.105 0.36-0.136 0.22-0.062 0.471-0.132 0.684-0.294 0.21-0.159 0.348-0.382 0.469-0.578 0.069-0.11 0.182-0.294 0.229-0.32 0.002-0.001 0.005-0.001 0.008-0.001 0.066 0 0.236 0.068 0.339 0.11 0.217 0.087 0.463 0.185 0.737 0.185s0.52-0.098 0.738-0.185c0.108-0.043 0.284-0.12 0.335-0.113 0.058 0.029 0.172 0.214 0.241 0.324 0.122 0.197 0.26 0.419 0.469 0.579 0.214 0.163 0.464 0.233 0.684 0.294 0.113 0.032 0.322 0.090 0.359 0.134 0.034 0.058 0.023 0.283 0.016 0.418-0.012 0.235-0.024 0.5 0.055 0.756 0.078 0.25 0.236 0.453 0.375 0.633 0.090 0.116 0.227 0.292 0.227 0.365s-0.137 0.249-0.227 0.365c-0.14 0.179-0.298 0.383-0.375 0.632-0.079 0.256-0.067 0.522-0.055 0.756 0.006 0.135 0.017 0.36-0.015 0.416-0.038 0.046-0.247 0.105-0.36 0.136-0.221 0.062-0.471 0.132-0.684 0.294-0.209 0.159-0.348 0.382-0.469 0.579-0.069 0.11-0.182 0.294-0.229 0.32-0.043 0.008-0.239-0.066-0.347-0.109-0.218-0.087-0.463-0.185-0.738-0.185s-0.52 0.098-0.738 0.185c-0.107 0.043-0.28 0.125-0.335 0.113-0.059-0.029-0.172-0.214-0.241-0.324-0.122-0.196-0.26-0.419-0.469-0.578zM12 21c-0.276 0-0.5-0.224-0.5-0.5 0-0.827 0.673-1.5 1.5-1.5 0.408 0 0.793 0.169 1.072 0.454-0.089 0.113-0.168 0.231-0.235 0.34-0.072 0.116-0.162 0.262-0.224 0.309s-0.214 0.090-0.348 0.128c-0.301 0.084-0.675 0.189-0.91 0.527-0.054 0.078-0.092 0.16-0.122 0.242h-0.232zM17.003 19c-0.003 0.003-0.005 0.008-0.007 0.011-0.23 0.018-0.445 0.096-0.628 0.169-0.134 0.053-0.285 0.114-0.366 0.114s-0.233-0.061-0.367-0.114c-0.184-0.073-0.399-0.151-0.629-0.169-0.003-0.004-0.005-0.008-0.008-0.012h0.002v-3.5c0-0.552 0.448-1 1-1s1 0.448 1 1v3.5h0.003zM19.768 21c-0.029-0.083-0.068-0.165-0.122-0.242-0.235-0.337-0.61-0.442-0.91-0.526-0.135-0.038-0.287-0.081-0.349-0.127s-0.152-0.192-0.224-0.309c-0.067-0.109-0.146-0.227-0.235-0.34 0.279-0.285 0.664-0.454 1.072-0.454 0.827 0 1.5 0.673 1.5 1.5 0 0.276-0.224 0.5-0.5 0.5h-0.232zM24.5 20.5c0 0.276-0.224 0.5-0.5 0.5h-2c-0.276 0-0.5-0.224-0.5-0.5 0-0.827 0.673-1.5 1.5-1.5s1.5 0.673 1.5 1.5zM23 17v1c-0.356 0-0.693 0.077-1 0.212v-3.854c0.637 0.722 1 1.656 1 2.643zM23 6.5c0 0.827-0.673 1.5-1.5 1.5h-0.384c0.247-0.533 0.384-1.122 0.384-1.736v-0.264c0-1.438-0.559-2.744-1.465-3.724 1.727 0.63 2.965 2.283 2.965 4.224zM10.5 8c-0.827 0-1.5-0.673-1.5-1.5 0-1.941 1.239-3.595 2.965-4.224-0.906 0.981-1.465 2.287-1.465 3.724v0.264c0 0.615 0.137 1.203 0.384 1.736h-0.384zM11.5 6.264v-0.264c0-2.481 2.018-4.5 4.5-4.5s4.5 2.019 4.5 4.5v0.264c0 0.908-0.387 1.744-1.043 2.326-0.19-0.907-0.995-1.59-1.957-1.59-0.122 0-0.243 0.013-0.361 0.035-0.276-0.324-0.681-0.534-1.139-0.534s-0.863 0.21-1.139 0.534c-0.118-0.022-0.239-0.035-0.361-0.035-0.962 0-1.767 0.683-1.957 1.59-0.655-0.582-1.043-1.418-1.043-2.325zM15.423 9.384c-0.151 0.361-0.508 0.616-0.923 0.616-0.552 0-1-0.448-1-1s0.448-1 1-1c0 0.623 0.382 1.157 0.923 1.384zM17.5 8c0.552 0 1 0.448 1 1s-0.448 1-1 1c-0.416 0-0.772-0.255-0.923-0.616 0.541-0.226 0.923-0.761 0.923-1.384zM15.5 8c0-0.276 0.224-0.5 0.5-0.5s0.5 0.224 0.5 0.5-0.224 0.5-0.5 0.5-0.5-0.225-0.5-0.5zM16 10.309c0.309 0.354 0.737 0.595 1.224 0.663-0.345 0.335-0.77 0.528-1.224 0.528-0.446 0-0.873-0.196-1.218-0.528 0.485-0.069 0.91-0.31 1.218-0.662zM11 14c0-1.508 0.69-2.926 1.851-3.872 0.136 0.197 0.307 0.368 0.503 0.506 0.517 1.136 1.535 1.866 2.646 1.866 1.11 0 2.132-0.73 2.648-1.867 0.195-0.138 0.366-0.308 0.502-0.505 1.161 0.946 1.851 2.364 1.851 3.872v5h0.013c-0.004 0.006-0.009 0.010-0.013 0.015-0.456-0.613-1.18-1.015-2-1.015-0.349 0-0.689 0.076-1 0.212v-2.713c0-1.103-0.897-2-2-2s-2 0.897-2 2v2.713c-0.312-0.137-0.65-0.212-1-0.212-0.82 0-1.544 0.403-2 1.015-0.004-0.006-0.008-0.010-0.013-0.015h0.013v-5zM9 17c0-0.986 0.364-1.921 1-2.643v3.854c-0.307-0.135-0.644-0.212-1-0.212v-1zM7.5 20.5c0-0.827 0.673-1.5 1.5-1.5s1.5 0.673 1.5 1.5c0 0.276-0.224 0.5-0.5 0.5h-2c-0.276 0-0.5-0.224-0.5-0.5zM4.333 22h5.667c0.386 0 0.734-0.151 1-0.39 0.266 0.24 0.614 0.39 1 0.39h0.166c0.001 0.082-0.004 0.157-0.018 0.206-0.024 0.076-0.122 0.203-0.21 0.314-0.196 0.251-0.438 0.564-0.438 0.98 0 0.188 0.053 0.351 0.125 0.5h-8.125l0.833-2zM2.25 27l0.833-2h9.083c-0.001 0.067-0.004 0.138-0.007 0.206-0.015 0.316-0.034 0.709 0.194 1.037 0.236 0.337 0.61 0.442 0.91 0.526 0.081 0.023 0.166 0.047 0.236 0.073v0.157h-11.251zM16 28.875l-1.5 1.125v-2.104c0.035 0.017 0.065 0.040 0.103 0.053 0.382 0.13 0.742-0.014 1.030-0.129 0.134-0.053 0.285-0.114 0.367-0.114s0.233 0.061 0.366 0.114c0.208 0.083 0.453 0.18 0.715 0.18 0.102 0 0.208-0.015 0.315-0.051 0.038-0.013 0.068-0.036 0.103-0.053v2.104l-1.5-1.125z"></path>
<path d="M19 5c0 0.276-0.224 0.5-0.5 0.5s-0.5-0.224-0.5-0.5c0-0.276 0.224-0.5 0.5-0.5s0.5 0.224 0.5 0.5z"></path>
<path d="M14 5c0 0.276-0.224 0.5-0.5 0.5s-0.5-0.224-0.5-0.5c0-0.276 0.224-0.5 0.5-0.5s0.5 0.224 0.5 0.5z"></path>
</symbol>
<symbol id="icon-and_architecture_landscape_nature_spruce_icon" viewBox="0 0 32 32">
<path stroke-linejoin="round" stroke-linecap="butt" stroke-miterlimit="4" stroke-width="1" d="M1 29h30v2h-30v-2z"></path>
<path stroke-linejoin="round" stroke-linecap="butt" stroke-miterlimit="4" stroke-width="1" d="M12.25 10.72c-0.345-0.337-0.786-0.576-1.279-0.672l-0.016-0.003c-0.23-1.163-1.241-2.028-2.455-2.028s-2.225 0.865-2.452 2.012l-0.003 0.016c-1.17 0.223-2.043 1.239-2.043 2.458 0 0.564 0.187 1.085 0.502 1.504l-0.005-0.006c-0.607 0.461-0.994 1.183-0.994 1.996 0 0.96 0.541 1.794 1.336 2.213l0.014 0.007c-0.224 0.367-0.356 0.811-0.356 1.286 0 1.381 1.119 2.5 2.5 2.5 0.566 0 1.088-0.188 1.507-0.505l-0.006 0.005c0.413 0.314 0.936 0.503 1.504 0.503 0.981 0 1.831-0.565 2.24-1.388l0.007-0.015"></path>
<path stroke-linejoin="round" stroke-linecap="butt" stroke-miterlimit="4" stroke-width="1" d="M9 25v-13.5"></path>
<path stroke-linejoin="round" stroke-linecap="butt" stroke-miterlimit="4" stroke-width="1" d="M9 15l-3-3"></path>
<path stroke-linejoin="round" stroke-linecap="butt" stroke-miterlimit="4" stroke-width="1" d="M9 18.5l2.045-2.045"></path>
<path stroke-linejoin="round" stroke-linecap="butt" stroke-miterlimit="4" stroke-width="1" d="M21 16c0-0.815-0.39-1.539-0.994-1.995l-0.006-0.005c0.312-0.412 0.499-0.934 0.499-1.499 0-1.216-0.868-2.229-2.018-2.454l-0.016-0.003c-0.23-1.163-1.241-2.028-2.455-2.028s-2.225 0.865-2.452 2.012l-0.003 0.016c-1.175 0.22-2.052 1.237-2.052 2.459 0 0.564 0.187 1.084 0.501 1.502l-0.005-0.006c-0.607 0.461-0.994 1.183-0.994 1.996 0 0.96 0.541 1.794 1.336 2.213l0.014 0.007c-0.224 0.367-0.356 0.811-0.356 1.286 0 1.381 1.119 2.5 2.5 2.5 0.566 0 1.088-0.188 1.507-0.505l-0.006 0.005c0.407 0.3 0.919 0.48 1.473 0.48 1.381 0 2.5-1.119 2.5-2.5 0-0.462-0.125-0.895-0.344-1.267l0.006 0.012c0.816-0.422 1.364-1.259 1.365-2.225v-0z"></path>
<path stroke-linejoin="round" stroke-linecap="butt" stroke-miterlimit="4" stroke-width="1" d="M16 26v-14.5"></path>
<path stroke-linejoin="round" stroke-linecap="butt" stroke-miterlimit="4" stroke-width="1" d="M16 15l2.5-2.5"></path>
<path stroke-linejoin="round" stroke-linecap="butt" stroke-miterlimit="4" stroke-width="1" d="M16 18.5l-2.5-2.5"></path>
<path stroke-linejoin="round" stroke-linecap="butt" stroke-miterlimit="4" stroke-width="1" d="M19.75 20.59c0.414 0.841 1.266 1.41 2.25 1.41 0.566 0 1.087-0.188 1.506-0.505l-0.006 0.005c0.407 0.3 0.919 0.48 1.473 0.48 1.381 0 2.5-1.119 2.5-2.5 0-0.462-0.125-0.895-0.344-1.267l0.006 0.012c0.815-0.423 1.363-1.261 1.363-2.226 0-0.814-0.389-1.537-0.992-1.994l-0.006-0.005c0.312-0.412 0.499-0.934 0.499-1.499 0-1.216-0.868-2.229-2.018-2.454l-0.016-0.003c-0.23-1.163-1.241-2.028-2.455-2.028s-2.225 0.865-2.452 2.012l-0.003 0.016c-0.509 0.099-0.95 0.338-1.296 0.675l0.001-0.001"></path>
<path stroke-linejoin="round" stroke-linecap="butt" stroke-miterlimit="4" stroke-width="1" d="M23.5 25v-13.5"></path>
<path stroke-linejoin="round" stroke-linecap="butt" stroke-miterlimit="4" stroke-width="1" d="M23.5 15l2.5-2.5"></path>
<path stroke-linejoin="round" stroke-linecap="butt" stroke-miterlimit="4" stroke-width="1" d="M23.5 18.5l-2.5-2.5"></path>
<path stroke-linejoin="round" stroke-linecap="butt" stroke-miterlimit="4" stroke-width="1" d="M30 29c0-1.105-0.895-2-2-2v0c-0.007-1.099-0.9-1.987-2-1.987-0.596 0-1.132 0.261-1.498 0.675l-0.002 0.002c-0.363-0.423-0.899-0.689-1.497-0.689-0.37 0-0.716 0.102-1.012 0.279l0.009-0.005c-0.287-0.172-0.633-0.274-1.003-0.274-0.598 0-1.134 0.266-1.495 0.687l-0.002 0.003c-0.368-0.416-0.904-0.677-1.5-0.677-1.1 0-1.993 0.888-2 1.986v0.001c-0.007-1.099-0.9-1.987-2-1.987-0.596 0-1.132 0.261-1.498 0.675l-0.002 0.002c-0.363-0.423-0.899-0.689-1.497-0.689-0.37 0-0.716 0.102-1.012 0.279l0.009-0.005c-0.287-0.172-0.633-0.274-1.003-0.274-0.598 0-1.134 0.266-1.495 0.687l-0.002 0.003c-0.368-0.416-0.904-0.677-1.5-0.677-1.1 0-1.993 0.888-2 1.986v0.001c-1.105 0-2 0.895-2 2v0"></path>
<path stroke-linejoin="round" stroke-linecap="butt" stroke-miterlimit="4" stroke-width="1" d="M20.5 6c0.001 0 0.002 0 0.004 0 0.828 0 1.5-0.672 1.5-1.5s-0.672-1.5-1.5-1.5c-0.203 0-0.397 0.040-0.574 0.114l0.010-0.004c-0.188-0.629-0.761-1.080-1.44-1.080s-1.252 0.451-1.437 1.069l-0.003 0.011c-0.167-0.070-0.361-0.11-0.564-0.11-0.828 0-1.5 0.672-1.5 1.5s0.672 1.5 1.5 1.5c0.001 0 0.003 0 0.004 0h-0z"></path>
<path stroke-linejoin="round" stroke-linecap="butt" stroke-miterlimit="4" stroke-width="1" d="M29.5 6c0.001 0 0.002 0 0.004 0 0.828 0 1.5-0.672 1.5-1.5s-0.672-1.5-1.5-1.5c-0.203 0-0.397 0.040-0.574 0.114l0.010-0.004c-0.188-0.629-0.761-1.080-1.44-1.080s-1.252 0.451-1.437 1.069l-0.003 0.011c-0.167-0.070-0.361-0.11-0.564-0.11-0.828 0-1.5 0.672-1.5 1.5s0.672 1.5 1.5 1.5c0.001 0 0.003 0 0.004 0h-0z"></path>
<path stroke-linejoin="round" stroke-linecap="butt" stroke-miterlimit="4" stroke-width="1" d="M24 4.725c-0.291 0.175-0.642 0.278-1.017 0.278s-0.727-0.103-1.027-0.283l0.009 0.005"></path>
<path stroke-linejoin="round" stroke-linecap="butt" stroke-miterlimit="4" stroke-width="1" d="M21 3c0-1.105 0.895-2 2-2s2 0.895 2 2v0"></path>
</symbol>
<symbol id="icon-aquatic_animal_food_seafood_fresh_icon" viewBox="0 0 32 32">
<path d="M28.266 16l1.099-4.714c0.252-1.077-0.957-1.903-1.87-1.28l-3.708 2.548c0.412 0.39 0.791 0.802 1.141 1.239l0.019 0.024c0.48 0.591 0.771 1.352 0.771 2.182s-0.291 1.591-0.776 2.188l0.005-0.006c-0.368 0.461-0.748 0.874-1.154 1.258l-0.006 0.005 3.708 2.548c0.913 0.623 2.122-0.202 1.87-1.28z"></path>
<path d="M11.307 23.585c1.005 1.375 2.612 2.259 4.425 2.259 2.628 0 4.823-1.856 5.346-4.328l0.006-0.036c-2.401 1.4-5.266 2.177-8.247 2.177-0.514 0-1.028-0.022-1.531-0.071z"></path>
<path d="M21.085 10.52c-0.529-2.508-2.724-4.364-5.353-4.364-1.813 0-3.421 0.883-4.415 2.243l-0.011 0.015c0.503-0.049 1.017-0.071 1.531-0.071 2.98 0 5.846 0.777 8.247 2.177z"></path>
<path d="M23.667 14.843c-2.346-2.929-6.316-4.858-10.83-4.858-4.153 0-7.844 1.634-10.235 4.176l2.128 1.84-2.128 1.84c2.391 2.542 6.082 4.176 10.235 4.176 4.514 0 8.485-1.929 10.83-4.858 0.254-0.314 0.408-0.718 0.408-1.157s-0.154-0.844-0.41-1.161l0.003 0.003zM8.070 15.454c-0.604 0-1.094-0.49-1.094-1.094s0.49-1.094 1.094-1.094c0.604 0 1.094 0.49 1.094 1.094v0c0 0 0 0 0 0 0 0.604-0.49 1.094-1.094 1.094-0 0-0 0-0 0v0zM12.096 18.922c-0.15 0.217-0.397 0.358-0.678 0.358-0.453 0-0.82-0.367-0.82-0.82 0-0.171 0.053-0.331 0.142-0.462l-0.002 0.003c0.374-0.564 0.597-1.256 0.597-2s-0.223-1.436-0.605-2.014l0.008 0.014c-0.089-0.129-0.142-0.289-0.142-0.461 0-0.453 0.367-0.82 0.82-0.82 0.281 0 0.529 0.141 0.677 0.357l0.002 0.003c0.551 0.822 0.88 1.833 0.88 2.922s-0.328 2.1-0.892 2.941l0.012-0.019z"></path>
</symbol>
<symbol id="icon-bouquet_love_valentines_romantic_flower_icon" viewBox="0 0 32 32">
<path d="M11.5 11c0-0.827-0.673-1.5-1.5-1.5s-1.5 0.673-1.5 1.5 0.673 1.5 1.5 1.5 1.5-0.673 1.5-1.5zM9.5 11c0-0.276 0.224-0.5 0.5-0.5s0.5 0.224 0.5 0.5-0.224 0.5-0.5 0.5-0.5-0.224-0.5-0.5z"></path>
<path d="M27.5 11c0-0.82-0.497-1.527-1.205-1.835 0.25-0.68 0.104-1.473-0.442-2.018s-1.339-0.693-2.018-0.441c-0.308-0.708-1.014-1.205-1.835-1.205-0.247 0-0.481 0.050-0.7 0.131-0.209-0.431-0.566-0.776-1.006-0.966 0.25-0.679 0.104-1.474-0.442-2.018s-1.338-0.693-2.018-0.442c-0.308-0.708-1.015-1.205-1.835-1.205s-1.527 0.496-1.835 1.205c-0.681-0.252-1.474-0.103-2.018 0.442s-0.692 1.339-0.441 2.018c-0.44 0.191-0.797 0.536-1.006 0.966-0.218-0.082-0.453-0.131-0.699-0.131-0.82 0-1.527 0.497-1.835 1.205-0.681-0.252-1.474-0.104-2.018 0.441s-0.692 1.339-0.441 2.018c-0.708 0.307-1.205 1.014-1.205 1.835s0.497 1.527 1.205 1.835c-0.25 0.68-0.104 1.473 0.441 2.018s1.338 0.692 2.018 0.441c0.242 0.559 0.736 0.981 1.335 1.137v1.068c0 1.067 0.255 2.087 0.739 3.009-0.204 0.037-0.403 0.107-0.58 0.227-0.414 0.279-0.659 0.744-0.659 1.242v3.046c0 0.498 0.246 0.963 0.659 1.242s0.935 0.336 1.398 0.151l1.52-0.608c-0.046 0.227-0.076 0.458-0.076 0.692v4c0 0.276 0.223 0.5 0.5 0.5h6c0.276 0 0.5-0.224 0.5-0.5v-4c0-0.234-0.030-0.465-0.076-0.692l1.52 0.608c0.463 0.185 0.985 0.128 1.398-0.151s0.659-0.744 0.659-1.242v-3.046c0-0.498-0.246-0.963-0.659-1.242-0.177-0.12-0.376-0.19-0.58-0.227 0.483-0.921 0.739-1.942 0.739-3.009v-1.068c0.599-0.155 1.093-0.578 1.335-1.137 0.68 0.251 1.474 0.103 2.018-0.441s0.692-1.339 0.442-2.018c0.709-0.307 1.205-1.014 1.205-1.835zM12.5 5.5c0.202 0 0.385-0.122 0.462-0.309s0.034-0.402-0.108-0.545c-0.357-0.356-0.357-0.937 0-1.293s0.937-0.357 1.293 0c0.143 0.143 0.358 0.187 0.545 0.108 0.187-0.077 0.309-0.26 0.309-0.462 0-0.551 0.448-1 1-1s1 0.449 1 1c0 0.202 0.122 0.385 0.308 0.462s0.402 0.035 0.545-0.108c0.357-0.357 0.936-0.357 1.293 0s0.357 0.936 0 1.293c-0.143 0.143-0.186 0.358-0.108 0.545s0.26 0.309 0.462 0.309c0.457 0 0.839 0.31 0.958 0.729-0.119 0.144-0.218 0.303-0.293 0.476-0.68-0.252-1.474-0.104-2.018 0.441s-0.692 1.339-0.442 2.018c-0.163 0.071-0.313 0.171-0.453 0.283-0.343-0.278-0.777-0.448-1.252-0.448s-0.909 0.17-1.252 0.448c-0.14-0.113-0.289-0.212-0.453-0.283 0.251-0.68 0.104-1.473-0.441-2.018s-1.339-0.693-2.018-0.441c-0.075-0.173-0.175-0.332-0.293-0.476 0.119-0.419 0.501-0.729 0.958-0.729zM19.038 13.191c0.077 0.187 0.26 0.309 0.462 0.309 0.552 0 1 0.448 1 1s-0.448 1-1 1c-0.202 0-0.385 0.121-0.462 0.309s-0.035 0.402 0.108 0.545c0.357 0.357 0.357 0.936 0 1.293s-0.936 0.357-1.293 0c-0.143-0.143-0.358-0.186-0.545-0.108s-0.308 0.26-0.308 0.462c0 0.552-0.448 1-1 1s-1-0.448-1-1c0-0.202-0.121-0.385-0.309-0.462-0.062-0.026-0.127-0.038-0.191-0.038-0.13 0-0.258 0.051-0.354 0.146-0.357 0.357-0.937 0.357-1.293 0s-0.357-0.936 0-1.293c0.143-0.143 0.186-0.358 0.108-0.545s-0.26-0.309-0.462-0.309c-0.552 0-1-0.448-1-1s0.448-1 1-1c0.202 0 0.385-0.121 0.462-0.309s0.034-0.402-0.108-0.545c-0.357-0.357-0.357-0.937 0-1.293s0.937-0.357 1.293 0c0.143 0.143 0.358 0.187 0.545 0.108 0.187-0.077 0.309-0.26 0.309-0.462 0-0.552 0.448-1 1-1s1 0.448 1 1c0 0.202 0.122 0.385 0.308 0.462s0.402 0.035 0.545-0.108c0.357-0.357 0.936-0.357 1.293 0s0.357 0.937 0 1.293c-0.143 0.143-0.186 0.358-0.108 0.545zM20.753 16.055c0.221 0.177 0.474 0.304 0.747 0.375v1.071c0 1.208-0.384 2.346-1.108 3.304l-2.55 1.020c-0.457-0.503-1.11-0.825-1.842-0.825s-1.385 0.322-1.842 0.825l-2.55-1.020c-0.723-0.957-1.107-2.096-1.107-3.304v-1.071c0.273-0.071 0.525-0.198 0.746-0.375 0.139 0.113 0.293 0.209 0.459 0.28-0.251 0.68-0.104 1.474 0.441 2.018s1.338 0.692 2.018 0.442c0.307 0.709 1.014 1.205 1.835 1.205s1.527-0.497 1.835-1.205c0.68 0.251 1.474 0.103 2.018-0.442s0.692-1.339 0.442-2.018c0.166-0.072 0.32-0.168 0.459-0.28zM14.5 23.5c0-0.827 0.673-1.5 1.5-1.5s1.5 0.673 1.5 1.5-0.673 1.5-1.5 1.5-1.5-0.673-1.5-1.5zM9 14.5c0-0.202-0.121-0.385-0.309-0.462s-0.402-0.034-0.545 0.108c-0.356 0.357-0.936 0.357-1.293 0s-0.356-0.937 0-1.293c0.143-0.143 0.186-0.358 0.109-0.545s-0.26-0.309-0.462-0.309c-0.551 0-1-0.448-1-1s0.449-1 1-1c0.202 0 0.385-0.121 0.462-0.309s0.035-0.402-0.109-0.545c-0.356-0.357-0.356-0.937 0-1.293s0.936-0.356 1.293 0c0.143 0.143 0.358 0.186 0.545 0.109s0.309-0.26 0.309-0.462c0-0.551 0.448-1 1-1s1 0.449 1 1c0 0.202 0.121 0.385 0.309 0.462s0.402 0.035 0.545-0.109c0.357-0.356 0.937-0.356 1.293 0s0.357 0.936 0 1.293c-0.143 0.143-0.186 0.358-0.108 0.545s0.26 0.309 0.462 0.309c0.201 0 0.394 0.063 0.558 0.174-0.655-0.2-1.395-0.044-1.912 0.473-0.545 0.545-0.692 1.339-0.441 2.018-0.709 0.307-1.205 1.014-1.205 1.835 0 0.267 0.057 0.518 0.152 0.751-0.181 0.157-0.411 0.249-0.652 0.249-0.552 0-1-0.448-1-1zM10.686 25.488c-0.156 0.063-0.326 0.044-0.466-0.050s-0.22-0.245-0.22-0.414v-3.046c0-0.169 0.080-0.32 0.22-0.414s0.309-0.113 0.466-0.050l2.959 1.183c-0.087 0.254-0.145 0.521-0.145 0.804s0.057 0.55 0.145 0.803l-2.959 1.184zM18.5 26.5v3.5h-5v-3.5c0-0.414 0.106-0.82 0.3-1.181l0.357-0.143c0.458 0.503 1.111 0.825 1.842 0.825s1.385-0.322 1.842-0.825l0.357 0.143c0.195 0.361 0.3 0.767 0.3 1.181zM22 21.977v3.046c0 0.169-0.080 0.32-0.22 0.414s-0.309 0.113-0.466 0.050l-2.959-1.183c0.087-0.254 0.145-0.521 0.145-0.804s-0.058-0.55-0.145-0.803l2.959-1.183c0.157-0.063 0.326-0.044 0.466 0.050 0.14 0.093 0.22 0.245 0.22 0.413zM25.5 12c-0.202 0-0.385 0.121-0.462 0.309s-0.035 0.402 0.108 0.545c0.357 0.357 0.357 0.937 0 1.293s-0.936 0.357-1.293 0c-0.142-0.143-0.358-0.187-0.545-0.108-0.187 0.077-0.308 0.26-0.308 0.462 0 0.552-0.448 1-1 1-0.241 0-0.471-0.092-0.652-0.249 0.095-0.232 0.152-0.485 0.152-0.751 0-0.82-0.497-1.527-1.205-1.835 0.25-0.68 0.104-1.473-0.442-2.018-0.517-0.517-1.256-0.672-1.912-0.473 0.164-0.111 0.357-0.174 0.558-0.174 0.202 0 0.385-0.121 0.462-0.309s0.035-0.402-0.108-0.545c-0.357-0.357-0.357-0.937 0-1.293s0.936-0.356 1.293 0c0.143 0.143 0.358 0.186 0.545 0.109s0.308-0.26 0.308-0.462c0-0.551 0.448-1 1-1s1 0.449 1 1c0 0.202 0.122 0.385 0.308 0.462s0.402 0.035 0.545-0.109c0.357-0.356 0.936-0.356 1.293 0s0.357 0.936 0 1.293c-0.143 0.143-0.186 0.358-0.108 0.545s0.26 0.309 0.462 0.309c0.552 0 1 0.448 1 1s-0.448 1-1 1z"></path>
<path d="M22 9.5c-0.827 0-1.5 0.673-1.5 1.5s0.673 1.5 1.5 1.5 1.5-0.673 1.5-1.5-0.673-1.5-1.5-1.5zM22 11.5c-0.276 0-0.5-0.224-0.5-0.5s0.224-0.5 0.5-0.5 0.5 0.224 0.5 0.5-0.224 0.5-0.5 0.5z"></path>
<path d="M16 13c-0.827 0-1.5 0.673-1.5 1.5s0.673 1.5 1.5 1.5 1.5-0.673 1.5-1.5-0.673-1.5-1.5-1.5zM16 15c-0.276 0-0.5-0.224-0.5-0.5s0.224-0.5 0.5-0.5 0.5 0.224 0.5 0.5-0.224 0.5-0.5 0.5z"></path>
<path d="M16 8c0.827 0 1.5-0.673 1.5-1.5s-0.673-1.5-1.5-1.5-1.5 0.673-1.5 1.5 0.673 1.5 1.5 1.5zM16 6c0.276 0 0.5 0.224 0.5 0.5s-0.224 0.5-0.5 0.5-0.5-0.224-0.5-0.5 0.224-0.5 0.5-0.5z"></path>
</symbol>
</defs>
</svg>
